<?xml version='1.0' encoding='utf-8'?>
<!-- Created by Zoltan Dul in 2026 - free to use with MIT license. Part of React Odontogram Modul - https://github.com/ZoliQua/React-Odontogram-Modul - SVG Version: 2.5.0 -->
<svg xmlns="http://www.w3.org/2000/svg" id="premolar_x5F_tooth" version="1.1" viewBox="0 0 39.8 71.2">
  <style>
    [data-active="0"] { display: none; }
  </style>
  <defs>
    <linearGradient id="linear-gradient-14-0" x1="-2098.8" y1="-10005.9" x2="-2095.5" y2="-10005.9" gradientTransform="translate(-537.8551 -10182.7775) rotate(-15) scale(1 -1)" gradientUnits="userSpaceOnUse" data-active="1">
      <stop offset=".2" stop-color="#ff422a" stop-opacity=".5" data-active="1" />
      <stop offset="1" stop-color="#000" data-active="1" />
      </linearGradient>
    <linearGradient id="linear-gradient-14-1" x1="-27724.8" y1="3821.9" x2="-27721.5" y2="3821.9" gradientTransform="translate(-25870.4377 -10617.4467) rotate(-165.5) scale(1 -1)" gradientUnits="userSpaceOnUse" data-active="1">
      <stop offset=".2" stop-color="#ff422a" stop-opacity=".5" data-active="1" />
      <stop offset="1" stop-color="#000" data-active="1" />
      </linearGradient>
    <linearGradient id="linear-gradient-14-2" x1="-928" y1="-8584" x2="-924.7" y2="-8584" gradientTransform="translate(-144.8074 -8614.9736) rotate(-7.3) scale(1 -1)" gradientUnits="userSpaceOnUse" data-active="1">
      <stop offset=".2" stop-color="#ff422a" stop-opacity=".5" data-active="1" />
      <stop offset="1" stop-color="#000" data-active="1" />
      </linearGradient>
    <linearGradient id="linear-gradient-14-3" x1="-27086.7" y1="5773.7" x2="-27083.4" y2="5773.7" gradientTransform="translate(-26274.9104 -8694.4515) rotate(-173.7) scale(1 -1)" gradientUnits="userSpaceOnUse" data-active="1">
      <stop offset=".2" stop-color="#ff422a" stop-opacity=".5" data-active="1" />
      <stop offset="1" stop-color="#000" data-active="1" />
      </linearGradient>
    <linearGradient id="linear-gradient-14-4" x1="-2586.9" y1="-10554.6" x2="-2583.6" y2="-10554.6" gradientTransform="translate(-542.2936 -10833.3481) rotate(-16.7) scale(1 -1)" gradientUnits="userSpaceOnUse" data-active="1">
      <stop offset=".2" stop-color="#ff422a" stop-opacity=".5" data-active="1" />
      <stop offset="1" stop-color="#000" data-active="1" />
      </linearGradient>
    <linearGradient id="linear-gradient-14-5" x1="-26854.8" y1="-856.4" x2="-26851.5" y2="-856.4" gradientTransform="translate(-25581.4928 -14735.3847) rotate(-148.4) scale(1.1 -1)" gradientUnits="userSpaceOnUse" data-active="1">
      <stop offset=".2" stop-color="#ff422a" stop-opacity=".5" data-active="1" />
      <stop offset="1" stop-color="#000" data-active="1" />
      </linearGradient>
    <linearGradient id="linear-gradient-14-6" x1="-26857.4" y1="-850.2" x2="-26854" y2="-850.2" gradientTransform="translate(-25581.4928 -14735.3847) rotate(-148.4) scale(1.1 -1)" gradientUnits="userSpaceOnUse" data-active="1">
      <stop offset=".2" stop-color="#ff422a" stop-opacity=".5" data-active="1" />
      <stop offset="1" stop-color="#000" data-active="1" />
      </linearGradient>
    <linearGradient id="linear-gradient-14-7" x1="-9941.2" y1="-14534.4" x2="-9937.7" y2="-14534.4" gradientTransform="translate(-3439.1657 -17844.7224) rotate(-47.9) scale(1.1 -1)" gradientUnits="userSpaceOnUse" data-active="1">
      <stop offset=".2" stop-color="#ff422a" stop-opacity=".5" data-active="1" />
      <stop offset="1" stop-color="#000" data-active="1" />
      </linearGradient>
    <linearGradient id="linear-gradient-14-8" x1="20.3" y1="-4027.9" x2="20.3" y2="-3989.4" gradientTransform="translate(0 -3980.1409) scale(1 -1)" gradientUnits="userSpaceOnUse" data-active="1">
      <stop offset="0" stop-color="#b70000" data-active="1" />
      <stop offset="1" stop-color="#eba13d" data-active="1" />
      </linearGradient>
    <linearGradient id="linear-gradient-14-9" x1="-2097.2" y1="-10006.2" x2="-2093.9" y2="-10006.2" gradientTransform="translate(-537.8551 -10182.7775) rotate(-15) scale(1 -1)" gradientUnits="userSpaceOnUse" data-active="1">
      <stop offset=".2" stop-color="#ff422a" stop-opacity=".5" data-active="1" />
      <stop offset="1" stop-color="#000" data-active="1" />
      </linearGradient>
    <linearGradient id="linear-gradient-14-10" x1="-27723.6" y1="3821.9" x2="-27720.3" y2="3821.9" gradientTransform="translate(-25870.4377 -10617.4467) rotate(-165.5) scale(1 -1)" gradientUnits="userSpaceOnUse" data-active="1">
      <stop offset=".2" stop-color="#ff422a" stop-opacity=".5" data-active="1" />
      <stop offset="1" stop-color="#000" data-active="1" />
      </linearGradient>
    <linearGradient id="linear-gradient-14-11" x1="-926.2" y1="-8583.1" x2="-922.9" y2="-8583.1" gradientTransform="translate(-144.8074 -8614.9736) rotate(-7.3) scale(1 -1)" gradientUnits="userSpaceOnUse" data-active="1">
      <stop offset=".2" stop-color="#ff422a" stop-opacity=".5" data-active="1" />
      <stop offset="1" stop-color="#000" data-active="1" />
      </linearGradient>
    <linearGradient id="linear-gradient-14-12" x1="-11693.7" y1="6913.8" x2="-11690.4" y2="6913.8" gradientTransform="translate(249.5197 13596.5612) rotate(58.4) scale(1 -1)" gradientUnits="userSpaceOnUse" data-active="1">
      <stop offset="0" stop-color="#ff422a" data-active="1" />
      <stop offset="1" stop-color="#bf0030" data-active="1" />
      </linearGradient>
    <linearGradient id="linear-gradient-14-13" x1="-2587.1" y1="-10555.3" x2="-2583.8" y2="-10555.3" gradientTransform="translate(-542.2936 -10833.3481) rotate(-16.7) scale(1 -1)" gradientUnits="userSpaceOnUse" data-active="1">
      <stop offset=".2" stop-color="#ff422a" stop-opacity=".5" data-active="1" />
      <stop offset="1" stop-color="#000" data-active="1" />
      </linearGradient>
    <linearGradient id="linear-gradient-14-14" x1="-26855.5" y1="-857.7" x2="-26852.2" y2="-857.7" gradientTransform="translate(-25581.4928 -14735.3847) rotate(-148.4) scale(1.1 -1)" gradientUnits="userSpaceOnUse" data-active="1">
      <stop offset=".2" stop-color="#ff422a" stop-opacity=".5" data-active="1" />
      <stop offset="1" stop-color="#000" data-active="1" />
      </linearGradient>
    <linearGradient id="linear-gradient-14-15" x1="-26858.7" y1="-850" x2="-26855.3" y2="-850" gradientTransform="translate(-25581.4928 -14735.3847) rotate(-148.4) scale(1.1 -1)" gradientUnits="userSpaceOnUse" data-active="1">
      <stop offset=".2" stop-color="#ff422a" stop-opacity=".5" data-active="1" />
      <stop offset="1" stop-color="#000" data-active="1" />
      </linearGradient>
    <linearGradient id="linear-gradient-14-16" x1="-9940.7" y1="-14534" x2="-9937.2" y2="-14534" gradientTransform="translate(-3439.1657 -17844.7224) rotate(-47.9) scale(1.1 -1)" gradientUnits="userSpaceOnUse" data-active="1">
      <stop offset=".2" stop-color="#ff422a" stop-opacity=".5" data-active="1" />
      <stop offset="1" stop-color="#000" data-active="1" />
      </linearGradient>
    <linearGradient id="linear-gradient-14-17" x1="20.3" y1="-4018.9" x2="20.3" y2="-4028.6" gradientTransform="translate(0 -3980.1409) scale(1 -1)" gradientUnits="userSpaceOnUse" data-active="1">
      <stop offset=".2" stop-color="#cf0" stop-opacity=".5" data-active="1" />
      <stop offset="1" stop-color="#b4c500" data-active="1" />
      </linearGradient>
    <linearGradient id="linear-gradient-14-18" x1="20" y1="-4015.1" x2="20" y2="-4022.6" gradientTransform="translate(0 -3980.1409) scale(1 -1)" gradientUnits="userSpaceOnUse" data-active="1">
      <stop offset="0" stop-color="#c8c9c9" data-active="1" />
      <stop offset="1" stop-color="#828282" data-active="1" />
      </linearGradient>
    <radialGradient id="radial-gradient-14-0" cx="20" cy="-3016" fx="20" fy="-3016" r="11.5" gradientTransform="translate(-.4 -2966.1409) scale(1 -1)" gradientUnits="userSpaceOnUse" data-active="1">
      <stop offset="0" stop-color="#fff" data-active="1" />
      <stop offset="0" stop-color="#ececec" data-active="1" />
      <stop offset=".3" stop-color="#cfcfcf" data-active="1" />
      <stop offset=".6" stop-color="#bababa" data-active="1" />
      <stop offset=".8" stop-color="#aeaeae" data-active="1" />
      <stop offset="1" stop-color="#aaa" data-active="1" />
      </radialGradient>
    <radialGradient id="radial-gradient-14-1" cx="-300.4" cy="-3017.8" fx="-300.4" fy="-3017.8" r="10.2" gradientTransform="translate(380.4131 -2966.1409) scale(1.2 -1)" gradientUnits="userSpaceOnUse" data-active="1">
      <stop offset="0" stop-color="#fff" data-active="1" />
      <stop offset="0" stop-color="#fefefe" data-active="1" />
      <stop offset=".2" stop-color="#f8d6d4" data-active="1" />
      <stop offset=".3" stop-color="#f2b5b2" data-active="1" />
      <stop offset=".5" stop-color="#ee9b98" data-active="1" />
      <stop offset=".6" stop-color="#eb8985" data-active="1" />
      <stop offset=".8" stop-color="#e97e79" data-active="1" />
      <stop offset="1" stop-color="#e97b76" data-active="1" />
      </radialGradient>
    <linearGradient id="linear-gradient-14-19" x1="20.1" y1="3083.3" x2="20.1" y2="3073.7" gradientTransform="translate(0 -3026.6338)" gradientUnits="userSpaceOnUse" data-active="1">
      <stop offset="0" stop-color="#f9ae94" data-active="1" />
      <stop offset=".5" stop-color="#cd986a" data-active="1" />
      <stop offset="1" stop-color="#f9ae94" data-active="1" />
      </linearGradient>
    <radialGradient id="radial-gradient-14-2" cx="20.1" cy="18.2" fx="20.1" fy="18.2" r="11.9" gradientTransform="translate(0 69.9) scale(1 -1)" gradientUnits="userSpaceOnUse" data-active="1">
      <stop offset="0" stop-color="#feff5f" data-active="1" />
      <stop offset="0" stop-color="#f9fc60" data-active="1" />
      <stop offset=".2" stop-color="#edf564" data-active="1" />
      <stop offset=".4" stop-color="#d8ea6b" data-active="1" />
      <stop offset=".5" stop-color="#bbd975" data-active="1" />
      <stop offset=".6" stop-color="#95c482" data-active="1" />
      <stop offset=".8" stop-color="#68ab91" data-active="1" />
      <stop offset=".9" stop-color="#328da3" data-active="1" />
      <stop offset="1" stop-color="#0071b5" data-active="1" />
      </radialGradient>
    <radialGradient id="radial-gradient-14-3" cx="19.8" cy="20.1" fx="19.8" fy="20.1" r="14.6" gradientTransform="translate(0 69.9) scale(1 -1)" gradientUnits="userSpaceOnUse" data-active="1">
      <stop offset="0" stop-color="#feff5f" data-active="1" />
      <stop offset="0" stop-color="#f9fc60" data-active="1" />
      <stop offset=".2" stop-color="#edf564" data-active="1" />
      <stop offset=".4" stop-color="#d8ea6b" data-active="1" />
      <stop offset=".5" stop-color="#bbd975" data-active="1" />
      <stop offset=".6" stop-color="#95c482" data-active="1" />
      <stop offset=".8" stop-color="#68ab91" data-active="1" />
      <stop offset=".9" stop-color="#328da3" data-active="1" />
      <stop offset="1" stop-color="#0071b5" data-active="1" />
      </radialGradient>
    <radialGradient id="radial-gradient-14-4" cx="20.1" cy="18.2" fx="20.1" fy="18.2" r="11.9" gradientTransform="translate(0 69.9) scale(1 -1)" gradientUnits="userSpaceOnUse" data-active="1">
      <stop offset="0" stop-color="#fff" data-active="1" />
      <stop offset="0" stop-color="#fdf3ea" data-active="1" />
      <stop offset=".2" stop-color="#f9d8b9" data-active="1" />
      <stop offset=".3" stop-color="#f5c18f" data-active="1" />
      <stop offset=".4" stop-color="#f2ae6c" data-active="1" />
      <stop offset=".6" stop-color="#f09f52" data-active="1" />
      <stop offset=".7" stop-color="#ef953f" data-active="1" />
      <stop offset=".9" stop-color="#ee8f33" data-active="1" />
      <stop offset="1" stop-color="#ee8d30" data-active="1" />
      </radialGradient>
    <radialGradient id="radial-gradient-14-5" cx="20" cy="20.1" fx="20" fy="20.1" r="14.5" gradientTransform="translate(-.5 69.9) scale(1 -1)" gradientUnits="userSpaceOnUse" data-active="1">
      <stop offset="0" stop-color="#fff" data-active="1" />
      <stop offset="0" stop-color="#fdf3ea" data-active="1" />
      <stop offset=".2" stop-color="#f9d8b9" data-active="1" />
      <stop offset=".3" stop-color="#f5c18f" data-active="1" />
      <stop offset=".4" stop-color="#f2ae6c" data-active="1" />
      <stop offset=".6" stop-color="#f09f52" data-active="1" />
      <stop offset=".7" stop-color="#ef953f" data-active="1" />
      <stop offset=".9" stop-color="#ee8f33" data-active="1" />
      <stop offset="1" stop-color="#ee8d30" data-active="1" />
      </radialGradient>
    <radialGradient id="radial-gradient-14-6" cx="20.1" cy="-993.7" fx="20.1" fy="-993.7" r="8" gradientTransform="translate(0 -938.1) scale(1 -1)" gradientUnits="userSpaceOnUse" data-active="1">
      <stop offset="0" stop-color="#fff" data-active="1" />
      <stop offset="0" stop-color="#fdf3ea" data-active="1" />
      <stop offset=".2" stop-color="#f9d8b9" data-active="1" />
      <stop offset=".3" stop-color="#f5c18f" data-active="1" />
      <stop offset=".4" stop-color="#f2ae6c" data-active="1" />
      <stop offset=".6" stop-color="#f09f52" data-active="1" />
      <stop offset=".7" stop-color="#ef953f" data-active="1" />
      <stop offset=".9" stop-color="#ee8f33" data-active="1" />
      <stop offset="1" stop-color="#ee8d30" data-active="1" />
      </radialGradient>
    <radialGradient id="radial-gradient-14-7" cx="19.7" cy="-987.5" fx="19.7" fy="-987.5" r="12.7" gradientTransform="translate(0 -938.1) scale(1 -1)" gradientUnits="userSpaceOnUse" data-active="1">
      <stop offset="0" stop-color="#fff" data-active="1" />
      <stop offset="0" stop-color="#fdf3ea" data-active="1" />
      <stop offset=".2" stop-color="#f9d8b9" data-active="1" />
      <stop offset=".3" stop-color="#f5c18f" data-active="1" />
      <stop offset=".4" stop-color="#f2ae6c" data-active="1" />
      <stop offset=".6" stop-color="#f09f52" data-active="1" />
      <stop offset=".7" stop-color="#ef953f" data-active="1" />
      <stop offset=".9" stop-color="#ee8f33" data-active="1" />
      <stop offset="1" stop-color="#ee8d30" data-active="1" />
      </radialGradient>
    </defs>
  <g id="base" data-active="1">
    <path id="bone-base" d="M39.6,18.2l-2.8,1.3c-2.6,1.6,0,9.7-2,12.1,0,4.9-4.5,3.9-5.9,3.8-3.9-.2-13.1,0-17.7,0s-5-3.3-5.2-3.1c-2.1,0-2.2-12.8-2.2-12.8l-1.5-2.2c-.2-.4-2.3-1-2.3-1.6V0h39.7v18.2h-.1Z" data-active="1" style="fill: #fdecc5;" />
    <path id="gum-base" d="M39.2,20c-1.1,1-2.7,1.7-3.2,3-1.1,3.5-.2,7.6-1.7,11-2,5.1-6.1.4-10,.5-3.9,0-8.2-.2-11.9.5-2.3.6-4.6,2.6-7,1.2-5.7-3.7-1.8-12.6-3.9-17.6-.2-.9-2-2.3-1.1-2.8,1.1-.5,4.2,1,4.5,2.2,2,3.7-1.9,13.9,3.5,15.2,2.6.3,8.3-.6,13.2-.9,3.7-.6,9.4.9,11.4-2.3,2-3.2-.1-8.1,2.5-11.1s5.5-1.2,3.8.9h0v.2h-.1Z" data-active="1" style="fill: #f79f9a;" />
    </g>
  <g id="mods" data-active="1">
    <path id="parodontal" d="M10.5,37c1.1.5,2.5.2,3.8.3,3.6.5,6.5.8,9.8,0,1.3-.3,3-.2,4.2-.3.8,0,1.3-.4,1.4-1.2.1-2.6.5-5.2.6-7.9,0-1.8.9-5-.5-6.4-1.4-1.1-4-1.7-6-1.3-2,.6-1,4.2-2.1,5.5s-1.8.5-2.2,0-.7-2.3-1-3c-1.4-3.5-6.5-1.2-8.9-.1-.8.4-.5,2-.6,2.9-.2,1.5,0,3.4,0,5,.3,2.3-.8,4.7,1.1,6.3h0l.2.2h.2Z" data-active="1" style="display: none; fill: #ffa46a;" />
    <g id="inflammation" data-active="1">
      <g id="cysta" data-active="1" style="display: none;">
        <path id="cysta-outside" d="M9.6,5.4c-2.6,2.5-1.6,9.3,1.6,11.2,3.2,1.9,4.8,1.9,7,2.1,4.1.4,11.4-.5,12.9-6.7,1.5-7.8-6.5-9.7-12.1-9.4-2.9,0-7.1.6-9.4,2.8Z" data-active="1" style="fill: #ffa46a;" />
        <path id="cysta-inside" d="M10.5,5.9c-2.4,2.3-1.4,8.3,1.4,9.9s4.5,1.6,6.4,1.8c3.8.3,10.4-.5,11.8-5.9,1.4-7-5.8-8.6-10.9-8.4-2.7,0-6.5.5-8.6,2.4h0v.2h0Z" data-active="1" style="fill: #feffd5;" />
        </g>
      <g id="granuloma" data-active="1" style="display: none;">
        <path id="granuloma-outside" d="M10,5.9c-2.9,1.8-1.7,6.7,1.7,8s5.3,1.4,7.5,1.5c4.5.3,12.3-.4,13.9-4.8,1.7-5.6-7-6.9-13-6.7-3.2,0-7.7.4-10.2,2h0Z" data-active="1" style="fill: #ffa46a;" />
        <path id="granuloma-inside" d="M10.9,6.6c-2.6,1.5-1.5,5.4,1.5,6.5s4.8,1.1,6.8,1.2c4.1.2,11-.3,12.5-3.8,1.6-4.6-6.1-5.6-11.5-5.5-2.8,0-6.9.3-9.1,1.6,0,0-.2,0-.2,0Z" data-active="1" style="fill: #feffd5;" />
        </g>
      <g id="abscess" data-active="1" style="display: none;">
        <path id="abscess-inside" d="M11.5,6.9c-.9.7-2.5-1.6-5.8,1.2-3.3,2.8,4.4,2,4.8,4.5.4,2.5-2.3,2.8-1.7,3.2s6.6-1.8,7.1-1.7c1.1.4,2,.4,2.9.5,1.3.1,3,0,4.5-.4s2.6.3,3.3-.4,7.5-.6,7.3-1.4-4.3-2.9-4.2-3.4c.2-.9,3.6-3.3,3.4-3.9s-6.4,1.7-7,1.2-.3-1.7-.7-1.9c-.7-.3-1.8,0-2.6-.2s-2.3-.4-3.3-.4-2.5.2-3.9.6-1.8.9-2.4,1.5l-1.4-1-.3,1.9h0Z" data-active="1" style="fill: #feffd5; stroke: #ffa46a; stroke-miterlimit: 10;" />
        </g>
      </g>
    <g id="mobility" data-active="1" style="display: none;">
      <path id="tooth-mobility-2" d="M28.8,12.8l2.6-1.4c-.9,1.7-1.8,3.4-2.8,5.1,1-.5,1.9-1,2.9-1.4-1.2,2-2.4,4-3.5,6.1,1.1-.3,2.2-.6,3.3-.9-1,1.5-2,3-3.1,4.5.7-.2,1.4-.4,2.1-.5-.7,1.2-1.4,2.3-2.1,3.5.9-.5,1.8-.8,2.7-1-.8,1.1-1.6,2.3-2.3,3.6.6-.3,1.2-.4,1.9-.4-.7.9-1.5,1.8-2.2,2.7" data-active="1" style="fill: none; stroke: #f99; stroke-miterlimit: 10; stroke-width: .8px;" />
      <path id="tooth-mobility-1" d="M9.9,13c1.1-.4,2.4-.2,3.4.7-1.4,1.3-2.8,2.5-4.3,3.5,1.4-.2,2.9-.1,4.4.3-1.4,1.2-2.7,2.5-4,3.8,1.1,0,2.2.2,3.2.5-.9.9-1.9,1.8-2.8,2.7.8,0,1.7.2,2.5.6-.9,1.2-1.8,2.6-2.5,4,1-.2,2-.5,3-.7-1.4,1.1-2.6,2.7-3.7,4.4.8.1,1.7,0,2.5-.1" data-active="1" style="fill: none; stroke: #f99; stroke-miterlimit: 10; stroke-width: .8px;" />
      </g>
    </g>
  <g id="tooth-variants" data-active="1">
    <path id="no-tooth-after-extraction" d="M18.9,35.5c-3,0-8.2,2.4-7.2-1.6,2.2-9.1-1.5-21.4.5-24.5,1.8-2.2,3.5,0,4,2.3,1.2,4.3.9,9.8,1.8,14.4.4,1.9,2.5,2.3,3.9,1.5,1-.5,1.2-2,1.3-3.7.4-4.1.5-8.6,1.4-12.2.4-1.6.8-2.8,2.4-2.9,4.3,0-.5,15.5,1.1,23.4.6,2.1-1.6,3.6-3.2,3.5,0,0-1.2.3-6,0,0,0,0-.2,0-.2Z" data-active="1" style="display: none; fill: #fff; stroke: #f99; stroke-miterlimit: 10; stroke-width: .2px;" />
    <path id="tooth-under-gum" d="M16,11.9c.3.9.8,1.9,1.7,2.3.8.3,1.4-.4,1.5-1.1.5-2.4-.7-5.1-.2-7.5.3-.9,1.2-.9,1.7-.2.7.8.9,1.9,1.2,2.9.5,1.8.2,3.5.1,5.3-.2,2,0,4,1,5.8,1.5,3.6,5.5,9.3,1,11.7-.7.2-1.5,0-2.3,0-1.6-.2-2.5.9-3.9,1.4-4.3,1.4-4.5-6.2-4-8.7.3-1.2.6-2.4.4-3.6-.3-2.5-1.4-5-1.7-7.4-.3-1.6-.3-3.2-.2-4.9,0-.8.6-3,1.7-1.8,1,1.7,1.2,4.1,1.8,5.8,0,0,.2,0,.2,0Z" data-active="1" style="display: none; fill: #ebebeb; stroke: #c8c9c9; stroke-miterlimit: 10;" />
    <path id="tooth-broken-incisal" d="M17.1,22.6c.3,1.9.9,4.3,2.6,5.3,1.5.9,2.9-.4,3.4-1.8,1.7-4.8.3-10.7,2.2-15.5.8-1.7,2.6-1.5,3.4.2,1,1.9,1.1,4.3,1.4,6.5.3,3.8-.7,7.3-1.6,11-1,4-1.2,8.3,0,12.4,1.7,7.5,6.8,19.4-.3,23.6s-.4-.9-1-.7c-.8,0-1.1-2.3-2-2.5s-2.2-2.9-2.9-3.1c-.8-.3-2.3,1.2-3.8,1.2s-2.8-1.3-3.5-1c-1.1.4.3,7.3-1,7.5-8.9,1.4-6.7-14.5-4.9-19.4.9-2.3,1.9-4.7,2.1-7.3.3-5.2-1.1-10.8-.8-15.9,0-3.3.5-6.8,1.2-10.1.2-1.7,2.2-5.9,3.9-3.2,1.4,3.9.9,8.8,1.6,12.6v.2Z" data-active="1" style="display: none; fill: #ebebeb; stroke: #c8c9c9; stroke-miterlimit: 10;" />
    <path id="tooth-broken-mesial-distal-incisal" d="M17.1,22.6c.3,1.9.9,4.3,2.6,5.3,1.5.9,2.9-.4,3.4-1.8,1.7-4.8.3-10.7,2.2-15.5.8-1.7,2.6-1.5,3.4.2,1,1.9,1.1,4.3,1.4,6.5.3,3.8-.7,7.3-1.6,11-1,4-1.2,8.3,0,12.4.7,3,1.6,6.7,2.3,10.3s-2.9,1.9-2.9,3.4-3.2,1.2-3.7,2.6-.6,2.1,0,3.1c1.2,2.3,4,4.4,2.2,5.1-1.4.2-4.7-4.3-6.3-4.7-1.5-.5-1.7,0-3,.4s-1.9-2.1-3.4-1.8c-2.3.4-3.4,6.3-4.1,4.8s-.6-2.3-.7-3.7,1.9-1.8,1.8-2.6c0-2.2,2.7-1.7,3-3.8s-2.3-3.8-1.9-4.8-2.1-4.5-1.7-5.6.8-2.7.9-4.1c.3-5.2-1.1-10.8-.8-15.9,0-3.3.5-6.8,1.2-10.1.2-1.7,2.2-5.9,3.9-3.2,1.4,3.9.9,8.8,1.6,12.6v.2h.1v-.3s.1,0,0,0h0Z" data-active="1" style="display: none; fill: #ebebeb; stroke: #c8c9c9; stroke-miterlimit: 10;" />
    <path id="tooth-broken-mesial-distal" d="M17.1,22.6c.3,1.9.9,4.3,2.6,5.3,1.5.9,2.9-.4,3.4-1.8,1.7-4.8.3-10.7,2.2-15.5.8-1.7,2.6-1.5,3.4.2,1,1.9,1.1,4.3,1.4,6.5.3,3.8-.7,7.3-1.6,11-1,4-1.2,8.3,0,12.4.7,3,1.6,6.7,2.3,10.3s-2.9,1.9-2.9,3.4-3.2,1.2-3.7,2.6-.6,2.1,0,3.1c1.2,2.3,4,4.4,2.2,5.1-1.4.2-2.9-.5-4.5-.9-3-1-5.1,1-8,1.5-3.9.6-4.7-2.1-5-5.7s1.9-1.8,1.8-2.6c0-2.2,2.7-1.7,3-3.8s-2.3-3.8-1.9-4.8-2.1-4.5-1.7-5.6.8-2.7.9-4.1c.3-5.2-1.1-10.8-.8-15.9,0-3.3.5-6.8,1.2-10.1.2-1.7,2.2-5.9,3.9-3.2,1.4,3.9.9,8.8,1.6,12.6v.2h.1v-.2s.1,0,0,0h.1Z" data-active="1" style="display: none; fill: #ebebeb; stroke: #c8c9c9; stroke-miterlimit: 10;" />
    <path id="tooth-broken-mesial-incisal" d="M17.1,22.6c.3,1.9.9,4.3,2.6,5.3,1.5.9,2.9-.4,3.4-1.8,1.7-4.8.3-10.7,2.2-15.5.8-1.7,2.6-1.5,3.4.2,1,1.9,1.1,4.3,1.4,6.5.3,3.8-.7,7.3-1.6,11-1,4-1.2,8.3,0,12.4.6,2.8,1.8,6.3,2.5,9.7s-2.4,1.8-2.2,2.9c.3,2.1-1.1,2.3-1.5,4s-2.6-2.3-3.6-1.3-.1,3.2-1.4,3.6c-1.4.2-1.9-1.3-3.5-1.7-1.1-.4,1.1,5.9.2,6.1-1.6.4-3.1,1.3-5,1.6-8.9,1.4-6.7-14.5-4.9-19.4.9-2.3,1.9-4.7,2.1-7.3.3-5.2-1.1-10.8-.8-15.9,0-3.3.5-6.8,1.2-10.1.2-1.7,2.2-5.9,3.9-3.2,1.4,3.9.9,8.8,1.6,12.6v.2h0Z" data-active="1" style="display: none; fill: #ebebeb; stroke: #c8c9c9; stroke-miterlimit: 10;" />
    <path id="tooth-broken-mesial" d="M17.1,22.6c.3,1.9.9,4.3,2.6,5.3,1.5.9,2.9-.4,3.4-1.8,1.7-4.8.3-10.7,2.2-15.5.8-1.7,2.6-1.5,3.4.2,1,1.9,1.1,4.3,1.4,6.5.3,3.8-.7,7.3-1.6,11-1,4-1.2,8.3,0,12.4.7,3,1.6,6.7,2.3,10.3s-2.9,1.9-2.9,3.4-3.2,1.2-3.7,2.6-.6,2.1,0,3.1c1.2,2.3,4,4.4,2.2,5.1-1.4.2-2.9-.5-4.5-.9-3-1-5.1,1-8,1.5-8.9,1.4-6.7-14.5-4.9-19.4.9-2.3,1.9-4.7,2.1-7.3.3-5.2-1.1-10.8-.8-15.9,0-3.3.5-6.8,1.2-10.1.2-1.7,2.2-5.9,3.9-3.2,1.4,3.9.9,8.8,1.6,12.6v.2h.1Z" data-active="1" style="display: none; fill: #ebebeb; stroke: #c8c9c9; stroke-miterlimit: 10;" />
    <path id="tooth-broken-distal-incisal" d="M17.1,22.6c.3,1.9.9,4.3,2.6,5.3,1.5.9,2.9-.4,3.4-1.8,1.7-4.8.3-10.7,2.2-15.5.8-1.7,2.6-1.5,3.4.2,1,1.9,1.1,4.3,1.4,6.5.3,3.8-.7,7.3-1.6,11-1,4-1.2,8.3,0,12.4,1.8,8,7.5,21.1-2,24.4-1.4.2-2.9-.5-4.5-.9-1.1-.4-.9-3.5-1.9-3.2s-2-3.5-2.6-3.6c-1,0-.2-9.1-2.5-2.9-2.5.4-1.9,5.1-2.9,3.4s-1.6.9-1.7-.9,0-2,0-3.2-2.6-1.6-2.4-2.9.7-3.4,1.1-4.5c.9-2.3,1.9-4.7,2.1-7.3.3-5.2-1.1-10.8-.8-15.9,0-3.3.5-6.8,1.2-10.1.2-1.7,2.2-5.9,3.9-3.2,1.4,3.9.9,8.8,1.6,12.6v.2h0Z" data-active="1" style="display: none; fill: #ebebeb; stroke: #c8c9c9; stroke-miterlimit: 10;" />
    <path id="tooth-broken-distal" d="M17.1,22.6c.3,1.9.9,4.3,2.6,5.3,1.5.9,2.9-.4,3.4-1.8,1.7-4.8.3-10.7,2.2-15.5.8-1.7,2.6-1.5,3.4.2,1,1.9,1.1,4.3,1.4,6.5.3,3.8-.7,7.3-1.6,11-1,4-1.2,8.3,0,12.4,1.8,8,7.5,21.1-2,24.4-1.4.2-2.9-.5-4.5-.9-3-1-5.1,1-8,1.5-1.1.2-2.1,0-2.9-.3-2-.8,4.3-5.3,3.9-8s-3.9-.2-3.9-1.4,1.8-3.1,1.9-4c.2-1.6-4.9-2-4.6-3.3s.5-1.8.7-2.5c.9-2.3,1.9-4.7,2.1-7.3.3-5.2-1.1-10.8-.8-15.9,0-3.3.5-6.8,1.2-10.1.2-1.7,2.2-5.9,3.9-3.2,1.4,3.9.9,8.8,1.6,12.6v.2h0Z" data-active="1" style="display: none; fill: #ebebeb; stroke: #c8c9c9; stroke-miterlimit: 10;" />
    <path id="tooth-crownprep" d="M17.1,22.7c.3,3.5,3.7,7.8,6,3,1.6-4.3.6-9.3,1.8-13.7.3-1.1,1.1-2.6,2.4-2.4,3.9,1.5,3.1,12.1,2.1,15.5-.7,3.2-.9,6.2-.9,9.4s1.5,4.3,1.8,6.5-1.8-.3-1.8.5-.5,3.9-.8,4.8c-.7,1.6-2.7,1.1-3.6.9-2-.4-3.4-.3-5,0-2.1.5-1.7.9-4.9.7-2.2-1.3-2.2-3.9-1.7-6.1s-2.2,0-2.2-.6c.5-7.9-.9-16.2.4-24.2.5-2.6.5-6.1,2.8-7.8.9-.5,1.6.2,2,1,1.5,3.8.9,8.6,1.6,12.2v.2h0v.2h0Z" data-active="1" style="display: none; fill: #ebebeb; stroke: #c8c9c9; stroke-miterlimit: 10;" />
    <path id="tooth-radix" d="M17.1,22.7c.3,3.5,3.7,7.8,6,3,1.6-4.3.6-9.3,1.8-13.7.3-1.1,1.1-2.6,2.4-2.4,3.9,1.5,3.1,12.1,2.1,15.5-.7,3.2-.9,6.2-.9,9.4s1.5,4.3,1.8,6.5-4.6,3.8-9.5,3.7-9.9-2.7-9.9-3c.5-7.9-1.5-16.7-.2-24.7.5-2.6.5-6.1,2.8-7.8.9-.5,1.6.2,2,1,1.5,3.8.9,8.6,1.6,12.2v.2h0v.2h0Z" data-active="1" style="display: none; fill: #ebebeb; stroke: #c8c9c9; stroke-miterlimit: 10;" />
    </g>
  <g id="tooth" data-active="1">
    <path id="tooth-base" d="M17.1,22.4c.3,1.9.9,4.3,2.6,5.3,1.5.9,2.9-.4,3.4-1.8,1.7-4.8.3-10.7,2.2-15.5.8-1.7,2.6-1.5,3.4.2,1,1.9,1.1,4.3,1.4,6.5.3,3.8-.7,7.3-1.6,11-1,4-1.2,8.3,0,12.4,1.8,8,7.5,21.1-2,24.4-1.4.2-2.9-.5-4.5-.9-3-1-5.1,1-8,1.5-8.9,1.4-6.7-14.5-4.9-19.4.9-2.3,1.9-4.7,2.1-7.3.3-5.2-1.1-10.8-.8-15.9,0-3.3.5-6.8,1.2-10.1.2-1.7,2.2-5.9,3.9-3.2,1.4,3.9.9,8.8,1.6,12.6,0,0,0,.2,0,.2Z" data-active="1" style="fill: #ebebeb; stroke: #c8c9c9; stroke-miterlimit: 10;" />
    <g id="tooth-base-beauty" data-active="1">
      <path id="tooth-base-beauty-1" d="M30,52.7s0-.2.1-.2v.2c0,1.4,0,2.8-.2,4.2s-1.2,3.2-2.3,4.1-.5.3-.8.2c.1-.4.3-.5.5-.8,1.3-2.2,2.2-4.7,2.6-7.6h0Z" data-active="1" style="fill: #fefdfd;" />
      <path id="tooth-base-beauty-2" d="M16.2,59.9c1.7-.8,4.5-1.2,6.1.6-1.5-.4-2.9-.4-4.4,0l-2.2.8c-.8.3-1.6.4-2.3,0l2.9-1.4s-.1,0,0,0c0,0-.1,0-.1,0Z" data-active="1" style="fill: #fefefe;" />
      </g>
    <g id="tooth-inflam-pulp" data-active="1" style="display: none;">
      <path id="tooth-inflam-pulp-base-2" d="M14.6,11.4c.9.6,0,3.7.3,6.1,0,3.3.6,7,2.2,9.8.8,1.2,1.5,2,2.8,2.1,1,.2,2.1,0,2.8-.5,2.2-1.6,3.7-8.5,4-12.2.2-1.1.3-6.9,1.4-3,.9,3.6-.7,6.1-1.2,10-.9,3.1-2.2,6.6-1.7,10.9.3,2.6,1.4,5.8,1.9,8.3s-.8,2.4-3,1.3c-1.6-.6-2.8-2.2-4.7-1.8-2.9.6-5,3.5-5.9,3-.4-.2-.6-1.7-.4-2.1.5-2.5,1.4-5,1.6-7.5.2-2.6-.2-5.4-.5-8.1-.3-2.6-2-15.7.4-16.6h0v.3h0Z" data-active="1" style="fill: #ff422a;" />
      <path id="tooth-inflam-pulp-base-1" d="M16.8,33c.3-.7,0-1.5,0-2.3.4,1.7.7,4.4.5,6.3,0,.5-.3,1.5-.4,1.8,0,.2,0,0,.2-.5.2-.4.4-.8.7-1,.2,0,.4-.2.5-.2,0-.2,0-.3-.2-.6-.6-1.1-.7-2.5-.7-3.9s0-1.5,1-.4c1.9,1.7,2.9,0,4.4-.8.4,0,0,2.3,0,3.3s-.5,1.8-1,2.5h0c.6-.2,1,.2,1.3.8.2.5.3.8.3.7-.6-2.9-.6-6.2.6-9,0,.8-.3,2.6-.2,3.7-.2,2.3,1.9,6.4,0,7.5-1,.3-2.5-.9-4-.8-1.2,0-2.5,1.1-3.6.4-1.7-1.5-.2-5.5.4-7.3h.2s0-.2,0-.2Z" data-active="1" style="fill: #ffa46a;" />
      <path id="pulp-inflam-path-8" d="M27.9,24.5h0v-.2c-.3-.1-.6-.2-.8-.1-.6.2-1.3.3-1.8.6s-.9.7-.1.8,2.1-.2,2.7-1.1Z" data-active="1" style="fill: url(#linear-gradient-14-0);" />
      <path id="pulp-inflam-path-7" d="M11.4,23.7h0v.2c0,.2.3.4.6.5.6.2,1.3.3,1.9.4s1,0,.5-.6-2-.9-2.9-.4h0Z" data-active="1" style="fill: url(#linear-gradient-14-1);" />
      <path id="pulp-inflam-path-6" d="M29.1,16.9h0v-.2c-.2-.2-.5-.3-.7-.2-.6,0-1.3.1-1.9.4s-1,.5-.1.7,2.1,0,2.8-.7h0Z" data-active="1" style="fill: url(#linear-gradient-14-2);" />
      <path id="pulp-inflam-path-5" d="M11.2,16.4h0v.2c0,.2.4.4.6.4.6,0,1.3.2,1.9,0s1-.3.3-.7-2.1-.5-2.9,0h.1Z" data-active="1" style="fill: url(#linear-gradient-14-3);" />
      <path id="pulp-inflam-path-4" d="M16,18.6h0s0-.1-.1-.2c-.2-.1-.5-.1-.8-.1-.6,0-1.2.4-1.8.7s-.8.6,0,.7,2.1-.3,2.7-1.1Z" data-active="1" style="fill: url(#linear-gradient-14-4);" />
      <path id="pulp-inflam-path-3" d="M24.8,12.3h0v.2c0,.3.3.5.5.7.5.4,1.2.7,1.8.9s1.1.2.6-.5-1.7-1.4-2.8-1.4h-.1Z" data-active="1" style="fill: url(#linear-gradient-14-5);" />
      <path id="pulp-inflam-path-2" d="M23.9,19.1h0v.2c0,.3.3.5.5.7.5.4,1.2.7,1.8.9s1.1.2.6-.5-1.7-1.4-2.8-1.4h-.1Z" data-active="1" style="fill: url(#linear-gradient-14-6);" />
      <path id="pulp-inflam-path-1" d="M15.3,11.5h-.2c-.3,0-.5.2-.8.3-.5.4-.9,1-1.3,1.6s-.4,1,.3.7,1.7-1.4,1.9-2.6h.1Z" data-active="1" style="fill: url(#linear-gradient-14-7);" />
      </g>
    <g id="tooth-healthy-pulp" data-active="1">
      <path id="tooth-healthy-pulp-2" d="M14.7,10.8c.7,1.6,0,4,.2,5.8.2,4,.7,9.8,3.7,12.7,1.3,1,3,.7,4.2-.4,3-3.2,3.9-12.1,4.5-16.6.3-1.1.8.4.9.8.9,3.7-.9,7.7-1.6,11.2-.9,3-1.9,6.8-1.2,10.6.7,4.3,4,10.9-3.7,7.2-1.3-.6-2.9,0-4.2.5-1.1.4-2.2,1.6-3.1,1-.5-.4-1.3-1.3-1.3-2s.2-1.3.3-1.9c.9-3.8,1.1-7.8.8-11.7,0-1.3-2.3-16.9.3-17.3h.2Z" data-active="1" style="fill: #fcc5bc;" />
      <path id="tooth-healthy-pulp-1" d="M16.8,32.1c.3-.7,0-1.7,0-2.5.4,1.9.7,4.9.5,7,0,.5-.3,1.6-.4,2,0,.2,0,0,.2-.5s.4-.9.7-1.1c.2,0,.4-.2.5-.3,0-.2,0-.4-.2-.6-.6-1.3-.7-2.8-.7-4.4s0-1.7,1-.5c1.9,1.9,2.9,0,4.4-.9.4,0,0,2.5,0,3.6s-.5,2-1,2.8h0c.6-.2,1,.2,1.3.9.2.5.3.9.3.7-.6-3.3-.6-6.9.6-10.1,0,.9-.3,2.9-.2,4.1-.2,2.5,1.9,7.2,0,8.4-1,.4-2.5-1-4-.9-1.2,0-2.5,1.2-3.6.5-1.7-1.7-.2-6.2.4-8.1h.2Z" data-active="1" style="fill: #f6a09b;" />
      </g>
    <path id="tooth-bruxism-wear" d="M13.8,57.4c.5.5,1,1,1.7.8.5,0,1.2-.5,1.8-.4.5,0,.9.4,1.3.6.9.4,1.7-.3,2.5-.7,1.3-.8,2.2.8,3.4,0,.9-.7,1.5-1.4,2.3-.5.4.3.8.9,1.3.5.4-.3.8-.9,1.4-.9,1.1.2,1.6,1.6,1.8,2.5.2,1.2-.6,2.4-1.7,3.5-3.2,4.1-5.5.7-9.5.9-1.5,0-3,.9-4.4,1.5s-3,0-4.6-.3c-1.6-.4-2.8-1.8-3.3-3.3-.2-1.1-.5-3-.2-4,1-1.7,4.8-1.7,5.9-.5h.1s.2.3.2.3Z" data-active="1" style="display: none; fill: #fff; stroke: #aaa; stroke-miterlimit: 10; stroke-width: .5px;" />
    <path id="tooth-bruxism-neck-wear" d="M23.6,48.4c-.4-.3-.7-.6-1.3-.5-.4,0-.9.3-1.4.2-.4,0-.7-.2-1-.3-.7-.2-1.3,0-1.9.3-1,.4-1.6-.5-2.6,0-.7.4-1.1.7-1.7.2-.3-.2-.6-.5-1-.3-.3.2-.6.5-1.1.5-.8,0-1.2-.9-1.3-1.4,0-.7.5-1.3,1.3-1.9,2.4-2.2,4.1-.3,7.1-.4,1.1,0,2.3-.5,3.3-.8s2.3,0,3.4.2c1.2.2,2.1,1,2.4,1.9.1.6.3,1.7.1,2.2-.8.9-3.6.9-4.4.2h0v-.2c-.1,0,0,0,0,0h.1Z" data-active="1" style="display: none; fill: #fff; stroke: #aaa; stroke-miterlimit: 10; stroke-width: .5px;" />
    </g>
  <g id="milktooth" data-active="1" style="display: none;">
    <path id="milktooth-base" d="M17,21.9c.4,3.5,3.9,7.9,6.5,3.3,2.1-4.7.3-10.6,2.6-15.3.4-.8,1.3-1.4,2.2-1.1,2.5,1,2.6,4.6,3,7,.8,5.4-1.8,10.5-2.4,15.8-.4,3.1.2,6.3.9,9.3.7,5.1,4.1,11.4,4.4,16.8.5,6.1-5.3,8.4-10.2,6-1-.6-1.7-1.8-2.9-2-1.9-.2-4.5,2.5-7,3.2-1,.3-2.2.3-3.2,0-6.5-1.9-4.6-13.7-3-18.6,1-2.6,2.3-5.2,2.5-8,.4-5.6-1.2-11.3-.8-16.8,0-2.5.4-5.1.9-7.6.4-1.8.8-3.9,2.2-5.1,1.2-1.1,2.4,0,2.8,1.3,1.2,3.8.8,8,1.5,11.7v.2h0Z" data-active="1" style="fill: #fff; stroke: #c8c9c9; stroke-miterlimit: 10;" />
    <g id="milktooth-beauty" data-active="1">
      <path id="milktooth-beauty-1" d="M31.5,52.9v-.2.2c.2,1.4.5,2.8.5,4.2s-.7,3.3-1.6,4.4-.4.4-.8.3c0-.4.2-.5.4-.9.9-2.4,1.5-5,1.4-7.9h.1Z" data-active="1" style="fill: #eaeaea;" />
      <path id="milktooth-beauty-2" d="M15.5,60.1c1.5-1.1,4.2-2.1,6.1-.6-1.5,0-2.9.2-4.3.9l-2,1.2c-.7.5-1.5.7-2.3.5l2.6-1.9h-.1Z" data-active="1" style="fill: #eaeaea;" />
      </g>
    <g id="milktooth-inflam-pulp" data-active="1" style="display: none;">
      <path id="tooth-inflam-pulp-base" d="M13.7,9.4c.5,1.2.3,3.2.3,4.6,0,4.6.3,8.6,2.2,12.5,1.1,2.6,4.5,4.2,6.8,2.3,2.9-2.9,3.7-8.9,4.4-13.3.6-8.5,2.6-2.4,2.2,1.8-.3,6-3.3,11.2-3,17.4-.5,3.3,5,13-1.2,12.3-2.2-.5-4.4-2.3-6.8-1.6-1.7.4-3.5,1.7-4.6,2.2-.6.3-1.4.2-1.9-.2-2.7-2.2,0-5.8.5-8.5,1.1-3.9,0-8.1-.4-12.1-.3-3.5-.6-8.6-.2-13,.1-1.1.6-4.9,1.6-4.5h0Z" data-active="1" style="fill: url(#linear-gradient-14-8);" />
      <path id="pulp-inflam-path-81" d="M29.5,24.4h0v-.2c-.3-.1-.6-.2-.8-.1-.6.2-1.3.3-1.8.6s-.9.7-.1.8,2.1-.2,2.7-1.1Z" data-active="1" style="fill: url(#linear-gradient-14-9);" />
      <path id="pulp-inflam-path-71" d="M10.2,23.4h0v.2c0,.2.3.4.6.5.6.2,1.3.3,1.9.4s1,0,.5-.6-2-.9-2.9-.4h0Z" data-active="1" style="fill: url(#linear-gradient-14-10);" />
      <path id="pulp-inflam-path-61" d="M30.9,15.8h0v-.2c-.2-.2-.5-.3-.7-.2-.6,0-1.3.1-1.9.4s-1,.5-.1.7,2.1,0,2.8-.7h0Z" data-active="1" style="fill: url(#linear-gradient-14-11);" />
      <path id="pulp-inflam-path-51" d="M12.5,16.9h.2c.2-.2.4-.4.2-.6-.4-.5-.9-1.4-1.5-1.8s-.9-.6-.7.2c.2.8.9,2,1.8,2.3h0Z" data-active="1" style="fill: url(#linear-gradient-14-12);" />
      <path id="pulp-inflam-path-41" d="M16,19.3h0s0-.1-.1-.2c-.2-.1-.5-.1-.8-.1-.6,0-1.2.4-1.8.7s-.8.6,0,.7,2.1-.3,2.7-1.1Z" data-active="1" style="fill: url(#linear-gradient-14-13);" />
      <path id="pulp-inflam-path-31" d="M26.1,11.6h0v.2c0,.3.3.5.5.7.5.4,1.2.7,1.8.9s1.1.2.6-.5-1.7-1.4-2.8-1.4h-.1Z" data-active="1" style="fill: url(#linear-gradient-14-14);" />
      <path id="pulp-inflam-path-21" d="M25,20h0v.2c0,.3.3.5.5.7.5.4,1.2.7,1.8.9s1.1.2.6-.5-1.7-1.4-2.8-1.4h-.1Z" data-active="1" style="fill: url(#linear-gradient-14-15);" />
      <path id="pulp-inflam-path-11" d="M15.4,10.8h-.2c-.3,0-.5.2-.8.3-.5.4-.9,1-1.3,1.6s-.4,1,.3.7,1.7-1.4,1.9-2.6c0,0,.1,0,.1,0Z" data-active="1" style="fill: url(#linear-gradient-14-16);" />
      </g>
    <path id="milktooth-healthy-pulp" d="M13.7,9.4c.5,1.2.3,3.2.3,4.6,0,4.6.3,8.6,2.2,12.5,1.1,2.6,4.5,4.2,6.8,2.3,2.9-2.9,3.7-8.9,4.4-13.3.6-8.5,2.6-2.4,2.2,1.8-.3,6-3.3,11.2-3,17.4-.5,3.3,5,13-1.2,12.3-2.2-.5-4.4-2.3-6.8-1.6-1.7.4-3.5,1.7-4.6,2.2-.6.3-1.4.2-1.9-.2-2.7-2.2,0-5.8.5-8.5,1.1-3.9,0-8.1-.4-12.1-.3-3.5-.6-8.6-.2-13,.1-1.1.6-4.9,1.6-4.5h0Z" data-active="1" style="fill: #fcc5bc;" />
    </g>
  <g id="endos" data-active="1">
    <path id="endo-medical-filling" d="M14.9,40.4c3.6,1.3,9.1.9,11.7-2.2.7-1.4.4-3.4.1-5-.7-3.5.8-10.7,1-14.3,0-2.9.4-6.7,0-9.2-.6-1.4-.9,6-1.1,6.4-.5,3.8-1.4,7-1.8,10.9-.2,1.4-.5,3-2.1,3.5-1.7.4-4.3,1.9-5.6.1-.9-2.1-1-4.9-1.5-7.3-.4-2.6-.6-4.7-.8-7.4,0-.7-.4-8.8-1.4-5.2-.9,6.4,0,13.2-.5,19.9,0,2-.3,3.5-.6,5.4-.4,1.8.6,3.7,2.3,4.3h.3Z" data-active="1" style="display: none; fill: #fff; stroke: #f9ae94; stroke-miterlimit: 10; stroke-width: .2px;" />
    <path id="endo-filling-incomplete" d="M15.3,39.3c3.5.9,8.8.5,10.9-1.7,1.1-1.4.5-3.1.4-4.6-.2-5,1.7-10.7,1.1-15.8-.3-1.8-.8,1.3-.9,1.8-.4,3.1-1.2,5.8-1.8,8.8-.2,1.1-1,2.2-2.8,2.4-3.8.6-6-1.6-6.5-3.9-.6-.4-1-12.5-2.3-8.8-.8,4.3,0,8.7-.4,13.1.4,2.8-2.6,7,2.1,8.6h.2Z" data-active="1" style="display: none; fill: #388aca;" />
    <path id="endo-filling" d="M15.3,43.9c3.5,1.3,8.8.8,10.9-2.6,1.1-2.1.5-4.6.4-6.9-.2-7.4,1.7-15.9,1.1-23.5-.3-2.7-.8,1.9-.9,2.7-.4,4.6-1.2,8.6-1.8,13.1-.2,1.7-1,3.3-2.8,3.6-3.8.9-6-2.4-6.5-5.8-.6-.6-1-18.7-2.3-13.1-.8,6.4,0,12.9-.4,19.5.4,4.1-2.6,10.4,2.1,12.8h.1v.2h0Z" data-active="1" style="display: none; fill: #388aca;" />
    <path id="endo-glass-pin" d="M27.7,21.8c-1.5,5.6-.4,13.5-2,18.8-.3.7-.9,1.1-1.7,1.2-1.8,0-3.7-.5-5.3-.3-3.1,1-6.1-1.8-6-5.2.7-3.7.5-14.3,1.3-19.2.5-1.5,1.1,2.6,1.2,2.9.7,3.5.2,8.3,2.9,10.6,1.7.6,4,.2,5.5-.8,2.1-1.8,2-5.7,2.8-8.3.3-1.4.9-4.7,1.4-4.9.3.4.2,1.5.2,2.2s0,2-.2,2.7v.2h0Z" data-active="1" style="display: none; fill: #c8c9c9;" />
    <path id="endo-metal-pin" d="M27.8,21.8c-.5,3.6-1.6,8-1.2,11.8-.2,3.1.7,9.2-2.8,9.4-.9,0-1.9-.4-2.8-.5-2.7-.3-6.9,2.3-7.9-1.7-.4-4.2.4-8.6.4-12.8.3-3.8-.7-7.9.5-11.4.2-.4.5-.2.7.6.6,2.8.4,5.6,1.2,8.4,0,.3.3.9.4,1.1.5,1.2,1.9,1.8,3.2,2.1,1.5.3,4,.5,4.8-1.1.9-2.9,1.8-5.5,2.4-8.3.3-1,.1-2.4.8-3.1.3,0,.4,1.2.4,2.2s0,2.1-.1,3.1h0s0,.2,0,.2Z" data-active="1" style="display: none; fill: #3951a3;" />
    <g id="endo-resorption" style="display: none;" data-active="1">
      <path id="endo-resorption-distal" d="M8.5,10.5s2.3-6.2,2.6-6.2l4.2.2c1.1,0,2.6,6.9,2.6,7l-.4,1.6c-.1.6-.4,1.2-.7,1.6l-1.3,2c-.8,1.2-2.2,1.3-3.1.2l-1.9-2.3c-.2-.2-.3-.4-.4-.6l-1.7-3.6h.1Z" data-active="1" style="fill: #fdecc5;" />
      <path id="endo-resorption-mesial" d="M22.1,10.3s2.3-6.2,2.6-6.2l4.2.2c1.1,0,2.6,6.9,2.6,7l-.4,1.6c-.1.6-.4,1.2-.7,1.6l-1.3,2c-.8,1.2-2.2,1.3-3.1.2l-1.9-2.3c-.2-.2-.3-.4-.4-.6l-1.7-3.6h.1Z" data-active="1" style="fill: #fdecc5;" />
      </g>
    <path id="endo-resection" d="M8.1,11.1s5.4-7.1,6.2-7c2.3,0,7.8-.2,10.5-.2s6.9,7.6,6.9,7.8l.2,6.3-23.6.4-.2-7.3h0Z" data-active="1" style="display: none; fill: #fdecc5;" />
    </g>
  <g id="surfaces" data-active="1">
    <g id="subcaries" data-active="1">
      <path id="subcaries-buccal" d="M17.3,53.5c.5.8,1.4,1.2,2.1,1.2,1.2,0,2.1-.9,2.6-2.5s.4-1,.4-1.7c-.5-3.3-5.6-2.1-6.2-.8-.4,1,.6,2.9,1.1,3.7h0Z" data-active="1" style="display: none; fill: #0a1018; stroke: #000; stroke-miterlimit: 10;" />
      <path id="subcaries-mesial" d="M26.4,46.4c-.2.4-.6,1-1,1.1-3.2.8-.6,8.1,1,9.5,1.8,2.9,5.3,2.5,6-1.2.4-2-.3-8-2.3-10.8s-.4-1.1-.8-1.2-.5,0-.7.2c-.6,0-1.1.5-1.4,1l-.8,1.5h0Z" data-active="1" style="display: none; fill: #0a1018; stroke: #000; stroke-miterlimit: 10;" />
      <path id="subcaries-distal" d="M10.4,58.2c1.4-.2,2.5-.7,3.1-2.9s.4-4.3.6-5.2c.7-3.8.6-8.3-2.7-7.9-3,.6-4.8,9.5-3.7,14s1.7,1.7,2.7,2h0Z" data-active="1" style="display: none; fill: #0a1018; stroke: #000; stroke-miterlimit: 10;" />
      <path id="subcaries-occlusal" d="M12.2,64.7c1.6,1.7,3.8.9,5.9.2,1.5-.5,2.8-.5,4.4,0,4.2.9,6.6-.5,5.1-4.6-1.6-3.7-5.6-3.7-8.9-3.5-4.8,0-10.1,4.1-7,8.7,3.1,4.6.3-1,.4-.8,0,0,.1,0,.1,0Z" data-active="1" style="display: none; fill: #0a1018; stroke: #000; stroke-miterlimit: 10;" />
      </g>
    <g id="caries" data-active="1">
      <path id="caries-root" d="M11.1,31.2c.7,2.8,10.5,1,12.8.5,3.5-.5,4.3-1.4,4.6-3.6s-5.5,2.3-7.5,2.3c-3.2,0-6.1-1.8-8.7-2.8s-1.8.4-1.7,1.3.2,1.6.4,2.3h.1Z" data-active="1" style="display: none; fill: #0a1018; stroke: #000; stroke-miterlimit: 10;" />
      <path id="caries-subcrown" d="M16.3,39.7c1.9-1.3,5.1-3.3,4.6-6.7-1.1-3.9-5.8-3.5-7.6-1.2-.8,1.1-1.7,2.3-2.1,3.9-.2,1.5-.2,3.9-.4,5.6s.5,1,1,.7c1.4-.8,3.7-2.1,4.4-2.2h.1Z" data-active="1" style="display: none; fill: #0a1018; stroke: #000; stroke-miterlimit: 10;" />
      <path id="caries-buccal" d="M16.2,53.4c.6.6,1.5.9,2.3.9,1.3,0,2.3-.7,2.9-1.9s.4-.8.4-1.3c-.5-2.5-6.1-1.6-6.8-.6-.4.8.7,2.2,1.2,2.8h0Z" data-active="1" style="display: none; fill: #0a1018; stroke: #000; stroke-miterlimit: 10;" />
      <g id="caries-mesial" data-active="1" style="display: none;">
        <path id="mesial-shape" d="M27.3,46.2c-3.6-.2-3.5,7.8-2.1,9,1.4,2.1,5.4,2,6.3-.5.7-1.9-1.5-7.7-4.1-8.4h-.1Z" data-active="1" style="fill: #0a1018; stroke: #000; stroke-miterlimit: 10;" />
        <path id="mesial-patch2" d="M27.8,50c3.2,0-1-3.3-1.8-1.2-.3.7.8,1.3,1.5,1.2h.3Z" data-active="1" style="fill: #fff;" />
        <path id="mesial-patch1" d="M26.6,53.4c1.4,1,4.6-.5,2.1-1.2-1.6-.4-2.5.5-2.1,1.2h0Z" data-active="1" style="fill: #fff;" />
        </g>
      <g id="caries-distal" data-active="1" style="display: none;">
        <path id="distal-shape" d="M10.1,57.5c1.9-.3,2.7-4.6,3.1-6.7.6-3.1.5-6.8-2.3-6.5-3.5.7-4.2,12.3-.9,13.2h0Z" data-active="1" style="fill: #0a1018; stroke: #000; stroke-miterlimit: 10;" />
        <path id="distal-patch2" d="M11.6,47.9c.7-.5.5-2.4-.4-2.3s-.7,2.7.2,2.3h.2Z" data-active="1" style="fill: #fff;" />
        <path id="distal-patch1" d="M9.6,54.4c0,.3.5.5.8.6.2,0,.6.2.6,0-.2-.5-.8-1.5-1.1-1.8-.6-.3-.4.9-.3,1.2h0Z" data-active="1" style="fill: #fff;" />
        </g>
      <g id="caries-occlusal" data-active="1" style="display: none;">
        <path id="occlusal-shape" d="M12.9,63.6c1.4,1.7,3.5,1,5.5.4,1.4-.4,2.6-.4,4.1,0,3.9,1,6.1-.3,4.9-4.4-1.4-3.7-5.1-3.8-8.2-3.7-4.6-.2-9.7,2.7-6.4,7.6h.1Z" data-active="1" style="fill: #0a1018; stroke: #000; stroke-miterlimit: 10;" />
        <path id="occlusal-patch2" d="M21.7,60.8c-.7,3,3.3,1.5,3.6,0,.5-.8.2-2-.5-2.3-1.2-.5-2.4,1-3.2,2.1h0v.2h.1Z" data-active="1" style="fill: #fff; stroke: #000; stroke-miterlimit: 10; stroke-width: .2px;" />
        <path id="occlusal-patch1" d="M14,60.9c-.1,1.5,1,2.6,1.6,1.2.4-.9.4-3.1-.4-3.1s-1.1.7-1.1,1.8v.2h-.1Z" data-active="1" style="fill: #fff; stroke: #000; stroke-miterlimit: 10; stroke-width: .2px;" />
        </g>
      </g>
    <g id="fillings" data-active="1">
      <g id="amalgam" data-active="1">
        <path id="filling-amalgam-occlusal" d="M11.6,62c-1,2.3.3,4,2.7,3.6,2.2-.2,4.2-1.4,6.3-1.6,2.3-.5,7.7,2.5,7-1.9-.5-3.7-3.4-5.4-7.4-5.3-3.7,0-7.1,1.7-8.5,5v.2h-.1Z" data-active="1" style="display: none; fill: #aaa; stroke: #aaa; stroke-miterlimit: 10;" />
        <path id="filling-amalgam-buccal" d="M19.4,54c1.6-.3,2.7-2.7,2.3-4.2-.5-1.5-3.2-1.3-4.3-.2-1.6,1.5-.1,4.4,1.9,4.4h.2-.1Z" data-active="1" style="display: none; fill: #aaa; stroke: #aaa; stroke-miterlimit: 10;" />
        <path id="filling-amalgam-mesial" d="M25.5,48.7c-3.1,1.6,0,5,.8,7.3.4.8.7,1.9,1.6,2.2,2.2.9,4.2-.5,4.3-2.8-.2-2.1-.9-4.3-1.2-6.5-.3-.8-1-6.2-2.3-4.3-.8,1.4-1.6,3.2-3,4h-.2,0Z" data-active="1" style="display: none; fill: #aaa; stroke: #aaa; stroke-miterlimit: 10;" />
        <path id="filling-amalgam-distal" d="M11.6,57.2c2.9-1.3,1.1-5.3,1.8-7.7.4-2.9.8-6.4-1.1-6.9-1.3-.4-2.2,1-2.5,2.1-1.1,3.1-5.2,14.5,1.6,12.6h.2Z" data-active="1" style="display: none; fill: #aaa; stroke: #aaa; stroke-miterlimit: 10;" />
        </g>
      <g id="composite" data-active="1">
        <path id="filling-composite-occlusal" d="M11.6,62c-1,2.3.3,4,2.7,3.6,2.2-.2,4.2-1.4,6.3-1.6,2.3-.5,7.7,2.5,7-1.9-.5-3.7-3.4-5.4-7.4-5.3-3.7,0-7.1,1.7-8.5,5v.2h-.1Z" data-active="1" style="display: none; fill: #feffbf; stroke: #feffbf; stroke-miterlimit: 10;" />
        <path id="filling-composite-buccal" d="M19.4,54c1.6-.3,2.7-2.7,2.3-4.2-.5-1.5-3.2-1.3-4.3-.2-1.6,1.5-.1,4.4,1.9,4.4h.2-.1Z" data-active="1" style="display: none; fill: #feffbf; stroke: #feffbf; stroke-miterlimit: 10;" />
        <path id="filling-composite-mesial" d="M25.5,48.7c-3.1,1.6,0,5,.8,7.3.4.8.7,1.9,1.6,2.2,2.2.9,4.2-.5,4.3-2.8-.2-2.1-.9-4.3-1.2-6.5-.3-.8-1-6.2-2.3-4.3-.8,1.4-1.6,3.2-3,4h-.2,0Z" data-active="1" style="display: none; fill: #feffbf; stroke: #feffbf; stroke-miterlimit: 10;" />
        <path id="filling-composite-distal" d="M11.6,57.2c2.9-1.3,1.1-5.3,1.8-7.7.4-2.9.8-6.4-1.1-6.9-1.3-.4-2.2,1-2.5,2.1-1.1,3.1-5.2,14.5,1.6,12.6h.2Z" data-active="1" style="display: none; fill: #feffbf; stroke: #feffbf; stroke-miterlimit: 10;" />
        </g>
      <g id="gic" data-active="1">
        <path id="filling-gic-occlusal" d="M11.6,62c-1,2.3.3,4,2.7,3.6,2.2-.2,4.2-1.4,6.3-1.6,2.3-.5,7.7,2.5,7-1.9-.5-3.7-3.4-5.4-7.4-5.3-3.7,0-7.1,1.7-8.5,5v.2h-.1Z" data-active="1" style="display: none; fill: #f9ae94; stroke: #f99; stroke-miterlimit: 10;" />
        <path id="filling-gic-buccal" d="M19.4,54c1.6-.3,2.7-2.7,2.3-4.2-.5-1.5-3.2-1.3-4.3-.2-1.6,1.5-.1,4.4,1.9,4.4h.2-.1Z" data-active="1" style="display: none; fill: #f9ae94; stroke: #f99; stroke-miterlimit: 10;" />
        <path id="filling-gic-mesial" d="M25.5,48.7c-3.1,1.6,0,5,.8,7.3.4.8.7,1.9,1.6,2.2,2.2.9,4.2-.5,4.3-2.8-.2-2.1-.9-4.3-1.2-6.5-.3-.8-1-6.2-2.3-4.3-.8,1.4-1.6,3.2-3,4h-.2,0Z" data-active="1" style="display: none; fill: #f9ae94; stroke: #f99; stroke-miterlimit: 10;" />
        <path id="filling-gic-distal" d="M11.6,57.2c2.9-1.3,1.1-5.3,1.8-7.7.4-2.9.8-6.4-1.1-6.9-1.3-.4-2.2,1-2.5,2.1-1.1,3.1-5.2,14.5,1.6,12.6h.2Z" data-active="1" style="display: none; fill: #f9ae94; stroke: #f99; stroke-miterlimit: 10;" />
        </g>
      <g id="temporary" data-active="1">
        <path id="filling-temporary-occlusal" d="M11.6,62c-1,2.3.3,4,2.7,3.6,2.2-.2,4.2-1.4,6.3-1.6,2.3-.5,7.7,2.5,7-1.9-.5-3.7-3.4-5.4-7.4-5.3-3.7,0-7.1,1.7-8.5,5v.2h-.1Z" data-active="1" style="display: none; fill: #fff; stroke: #eee; stroke-miterlimit: 10;" />
        <path id="filling-temporary-buccal" d="M19.4,54c1.6-.3,2.7-2.7,2.3-4.2-.5-1.5-3.2-1.3-4.3-.2-1.6,1.5-.1,4.4,1.9,4.4h.2-.1Z" data-active="1" style="display: none; fill: #fff; stroke: #eee; stroke-miterlimit: 10;" />
        <path id="filling-temporary-mesial" d="M25.5,48.7c-3.1,1.6,0,5,.8,7.3.4.8.7,1.9,1.6,2.2,2.2.9,4.2-.5,4.3-2.8-.2-2.1-.9-4.3-1.2-6.5-.3-.8-1-6.2-2.3-4.3-.8,1.4-1.6,3.2-3,4h-.2,0Z" data-active="1" style="display: none; fill: #fff; stroke: #eee; stroke-miterlimit: 10;" />
        <path id="filling-temporary-distal" d="M11.6,57.2c2.9-1.3,1.1-5.3,1.8-7.7.4-2.9.8-6.4-1.1-6.9-1.3-.4-2.2,1-2.5,2.1-1.1,3.1-5.2,14.5,1.6,12.6h.2Z" data-active="1" style="display: none; fill: #fff; stroke: #eee; stroke-miterlimit: 10;" />
        </g>
      <g id="defect" data-active="1">
        <polygon id="defect-occlusal" points="18.8 64.7 17.1 64.2 18.7 63.6 21.9 63.4 23.5 63.9 22 64.6 18.8 64.7" style="display: none; fill: #f5ff15; stroke: #2e3192; stroke-miterlimit: 10; stroke-width: .5px;" data-active="1" />
        <polygon id="defect-buccal" points="18.6 49.5 17.7 49 18.5 48.4 20.3 48.3 21.2 48.8 20.3 49.4 18.6 49.5" style="display: none; fill: #f5ff15; stroke: #2e3192; stroke-miterlimit: 10; stroke-width: .5px;" data-active="1" />
        <polygon id="defect-distal" points="8.5 50.4 7.6 51.7 7.4 50.1 8.2 47.4 9.1 46.1 9.3 47.7 8.5 50.4" style="display: none; fill: #f5ff15; stroke: #2e3192; stroke-miterlimit: 10; stroke-width: .5px;" data-active="1" />
        <polygon id="defect-mesial" points="32 51.1 31.7 52.7 30.9 51.4 30.2 48.6 30.5 47.1 31.3 48.3 32 51.1" style="display: none; fill: #f5ff15; stroke: #2e3192; stroke-miterlimit: 10; stroke-width: .5px;" data-active="1" />
        </g>
      </g>
    <g id="contact-point" data-active="1">
      <g id="mesial-no-contact-point" data-active="1" style="display: none;">
        <path d="M30.3,50.8c1,2.4,2.3,5.1,3.6,7.6" data-active="1" style="fill: none; stroke: #aaa; stroke-miterlimit: 10; stroke-width: .5px;" />
        <path d="M30.7,58.9c.7-1.6.7-2.5,1.2-3.8.6-1.4,1.1-2.9,1.3-4.4" data-active="1" style="fill: none; stroke: #aaa; stroke-miterlimit: 10; stroke-width: .5px;" />
        </g>
      <g id="distal-no-contact-point" data-active="1" style="display: none;">
        <path d="M5.6,50.8c1,2.6,2.3,5.4,3.6,8.1" data-active="1" style="fill: none; stroke: #aaa; stroke-miterlimit: 10; stroke-width: .5px;" />
        <path d="M5.7,59c.8-1.5.9-2.5,1.6-3.7.7-1.4,1.3-2.8,1.7-4.3" data-active="1" style="fill: none; stroke: #aaa; stroke-miterlimit: 10; stroke-width: .5px;" />
        </g>
      </g>
    <g id="fissure-sealing" data-active="1" style="display: none;">
      <path id="fissure-sealing-occlusal" d="M12.9,65.6c1.4.2,3.5-.6,5.5-.6s4.8,0,6.3.2c3.9,0,5.6-.7,4.4-1.2-1.4-.5-6.7,0-9.8,0-4.6,0-11.9.7-8.6,1.4l1.2.3h1.1-.1Z" data-active="1" style="fill: #3fb6ff; stroke: #3fb6ff; stroke-miterlimit: 10;" />
      </g>
    </g>
  <g id="restorations" data-active="1">
    <path id="crown-leakage" d="M11.3,34.5c5-4.4,12.9-3.5,16.9,2,2.2,3-21,1.5-16.9-2" data-active="1" style="display: none; fill: #9e00e9; stroke: #9e00e9; stroke-miterlimit: 10;" />
    <g id="implant" data-active="1" style="display: none;">
      <path id="implant-locator-screw" d="M16.6,47.4c.9,1.5,3.8.9,5.4,1,3.2-.5,1.7-4.6,2-7,0-.7.2-1.6-.3-2.1-.2-.3-.7-.4-1-.4-1.5,0-3.4-.2-4.9.2-1.3.3-1.4,1.3-1.4,2.5,0,2-.2,3.9.1,5.7v.2h0Z" data-active="1" style="fill: url(#linear-gradient-14-17); stroke: #c8c9c9; stroke-miterlimit: 10; stroke-width: .2px;" />
      <path id="implant-connector" d="M13.7,40.7h0c.1,1.4,1.1,2.1,1.9,1.7,1.4-.7,1.6-2,3.4-2.1h3.3c.8,0,1.8,1.9,2.9,2.2s1.4-.6,1.3-1.6c0-1.9,0-5.6-.5-5.7s-3.1,0-3.7,0h-4.5c-1,0-2.7-.4-3.5.7-.8,1.1-1,2.9-.8,4l.2.7h0Z" data-active="1" style="fill: url(#linear-gradient-14-18);" />
      <path id="implant-bar" d="M5.8,53.5c5.8.3,21,0,27.4,0s2.8-2.2,3-4.1.2-3.2-1-3.4-4.8,0-6.3,0c-3.6,0-6.7,0-10.1.2-3.8,0-12.1.2-12.7,0-1.1.2-2.2.9-2.2,1.9-.2,1.9-.2,5.5,1.8,5.3h.1Z" data-active="1" style="fill: url(#radial-gradient-14-0);" />
      <g id="implant-healing-abutment" data-active="1" style="display: none;">
        <path id="implant-healing-abutment-connector" d="M16.7,39.9c1.7.3,3.7-.2,5.4-.2,3.3,0,4.2-1.2,3.4-5.6-.8-3.9-1.7-9-2.7-13.4-.3-1.1-.6-2.2-1.1-3.1-2.3-4.5-4.3,1.7-4.7,5-.5,3.4-.6,5.9-1.3,9-.6,2.7-2.4,7.7.7,8.3h.3Z" data-active="1" style="fill: #a0a0a0; stroke: #8c8c8c; stroke-miterlimit: 10; stroke-width: .5px;" />
        <path d="M27.3,36.4h-9.2c-1.4,0-5,.2-5,.2,0,0-.4.9-.7,1.7s-.3,1.2-.3,1.8v2.7c.1.3.2.5.2.7h1.1c2.4-.3,4.9-.4,7.3-.4v-.2c.3,0-.7-.2-.9-.2.4.5-1.8,0-2.1,0-.5,0-.7-.5-.7-1v-2.4c0-.6.6-.5.4-.6l-4.1.3c-.4,0-.7.2-1.1,0l2.5-.5c3.2-.6,6.4-.3,9.5,0,.6,0,1.2,0,1.9.2h.5c.2,0,.4,0,.5.2-.2-.2,0-2.5,0-2.5,0,0,.2,0,.2,0Z" data-active="1" style="fill: #475563;" />
        <path d="M20.9,42.9v-.2h.2c.1,0,0,0,0-.2.5,0,2,.3,2.6.2.1.3.5.2.7.2.6,0,2.3.2,2.5-.9s.2-1.8,0-2.7-.3-.4-.1-.6h.4s.2,0,.2.4v3.6c0,.2-.1.4-.2.6-.9,0-1.8-.2-2.8-.3h-3.6,0Z" data-active="1" style="fill: #8c8c8c;" />
        <path d="M20.6,38.7c-.1-.2-.3-.2-.5-.2l-.9.2c-.1-.2-.4-.2-.6,0-.1-.2-.9,0-1,0l-4.1.3c-.4,0-.7.2-1.1,0l2.5-.5c3.2-.6,6.4-.3,9.5,0,.1.3,0,.2.3.6.2.3.3.2.4.5.1.7,0,1.5,0,2.1s-.3.8-.7.9c-.7,0-2,.2-2.7,0s-1.4-.2-1.4-.6v-.9c-.1-.4,0-1.5,0-2s.5-.7.3-.5h0Z" data-active="1" style="fill: #e8eef0;" />
        <path d="M23.7,42.7h.7c.4-.2.7-.6.7-1v-1.9c0-.6-.9-1.1-1.5-1.1-.3-.4.9,0,.8-.2.6,0,1.2,0,1.9.2s.3,0,.5,0c-.2.2,0,.4.1.6.1.9.1,1.8,0,2.7s-1.9,1-2.5.9-.6,0-.7-.2h0Z" data-active="1" style="fill: #a0a0a0;" />
        <path d="M17.6,38.6c.1,0,.9-.2,1,0,.2-.2.5-.2.6,0,0,0-.2.2-.2.3,0,1-.2,1.9,0,2.9s.6.6,1,.7c.4.5-1.8,0-2.1,0-.5,0-.7-.5-.7-1v-2.4c0-.8.6-.5.4-.6h0Z" data-active="1" style="fill: #6f7c86;" />
        <path d="M20.9,42.7c.3,0-1.1-.3-.9-.2-.4,0-.9,0-1-.7-.2-.9,0-1.9,0-2.9s.2-.2.2-.3l.9-.2c.2,0,.4,0,.5.2-.2.2-.3.4-.3.7v2.5c0,.9.5.6.7.7v.2h-.2,0Z" data-active="1" style="fill: #a0a0a0;" />
        </g>
      <g id="implant-base" data-active="1">
        <path d="M16.9,36.4c-.1-1.3-.2-2.7.2-4h5.6c.4,1,.2,2.9.2,4h-6Z" data-active="1" style="fill: #bbc3c6;" />
        <path d="M18.1,10c-.2,0,0-2.2,0-2.4.2-1.3.9-2.4,1.9-3,1-.6.2,0,.2-.3,1.7,0,3.3,1.1,3.8,3.1.5,2,0,1.2.1,1.8h-1.3c0-.8,0-2.1-.8-2.3s-.7,0-.7.3c0,.8,0,1.5.2,2.1l-3.5.6h0Z" data-active="1" style="fill: #bac3c7;" />
        <path d="M17.1,32.4c-.4,1.3-.3,2.7-.2,4l-3.8.2c0-.7-.3-4.2.7-4,1.1-.2,2.2-.2,3.3-.2Z" data-active="1" style="fill: #a0a4a5;" />
        <path d="M17.7,31.9v-2.5c1.5-.3,3-.7,4.6-.7l.2,3.3h-4.8Z" data-active="1" style="fill: #bac3c6;" />
        <path d="M20.3,4.2s-.1.2-.2.3c-1,.6-1.6,1.7-1.9,3-.3,1.3-.2,2.4,0,2.4l-2.4.6c.1-1.1,0-2.2.3-3.3s1.1-2.2,2.1-2.7c1-.5,1.5-.4,2.2-.4h-.1Z" data-active="1" style="fill: #9ca3a6;" />
        <path d="M22.9,36.4c0-1.1.2-3-.2-4h2.7c.2,1,.3,3,0,4h-2.5Z" data-active="1" style="fill: #e8eef0;" />
        <path d="M17.6,29.3v2.5c.1,0-3.4.2-3.4.2,0-.7,0-1.4.1-2,1.1-.4,2.2-.5,3.2-.8h.1,0Z" data-active="1" style="fill: #9ea3a4;" />
        <path d="M25.4,36.5c.2-1,.2-3,0-4h1.4c.8.2.7,3.3.5,4h-1.9Z" data-active="1" style="fill: #bcc4c7;" />
        <path d="M22.5,31.9l-.2-3.3c.6-.2,1.3-.2,1.9-.2l.2,3.6h-1.9Z" data-active="1" style="fill: #e3eaeb;" />
        <path d="M24.4,32l-.2-3.6c.5-.1,1.1-.1,1.7-.1l.3,3.8h-1.8Z" data-active="1" style="fill: #b8c2c4;" />
        <path d="M17.7,27.5v-1.1c1.5-.3,3-.6,4.5-.7v1.1l-4.5.7Z" data-active="1" style="fill: #b7c0c3;" />
        <path d="M17.8,24.6c-.1-.4,0-.8,0-1.2,1.5-.3,2.9-.5,4.3-.7v1.2l-4.4.7h0Z" data-active="1" style="fill: #b9c0c4;" />
        <path d="M17.9,21.7c-.3-.4,0-.5-.2-1.1,1.4-.4,2.8-.6,4.3-.8v1.2c-1.3.2-2.7.4-4.1.7Z" data-active="1" style="fill: #b8c0c3;" />
        <path d="M17.8,18.7v-1.1c1.3-.3,2.7-.6,4.1-.7v1.1s-4.1.7-4.1.7Z" data-active="1" style="fill: #b7bfc3;" />
        <path d="M17.9,15.8v-1.1c1.3-.3,2.6-.5,3.9-.7v1.2l-4,.6s.1,0,0,0h0Z" data-active="1" style="fill: #b9c1c5;" />
        <path d="M17.9,11.8c1.2-.3,2.4-.6,3.7-.7v1.2c-1.2.1-2.4.4-3.7.6v-1.1Z" data-active="1" style="fill: #bac3c5;" />
        <path d="M17.7,28.8c0-.2,0-.5-.1-.7-.2.2-.5.3-.6,0,1.7-.4,3.5-.7,5.3-.9.1.2,0,.5,0,.8l-4.6.7h0Z" data-active="1" style="fill: #b7c0c3;" />
        <path d="M17.8,25.9c-.2-.2,0-.5,0-.8,1.5-.3,3-.6,4.5-.7v.8l-4.4.7s-.1,0,0,0h-.1Z" data-active="1" style="fill: #b9c0c3;" />
        <path d="M17.7,26.4v1.1l-3.2.8v-1.1c1-.4,2.1-.5,3.1-.7h.1Z" data-active="1" style="fill: #9a9fa1;" />
        <path d="M17.9,22.9c-.1-.3-.2-.4-.2-.7,1.5-.3,2.9-.6,4.3-.7v.8l-4.2.7h0Z" data-active="1" style="fill: #bac0c3;" />
        <path d="M17.8,23.4c0,.4-.1.8,0,1.2l-3.1.7v-1.2c1-.4,2-.5,3-.7,0,0,.1,0,0,0,0,0,.1,0,0,0h0Z" data-active="1" style="fill: #999fa1;" />
        <path d="M17.8,20v-.8c1.4-.3,2.8-.5,4.2-.7v.8l-4.2.7Z" data-active="1" style="fill: #bac1c4;" />
        <path d="M17.8,17.1v-.7c1.3-.3,2.7-.5,4-.7v.8l-4.1.6s.1,0,0,0h0Z" data-active="1" style="fill: #b9c0c3;" />
        <path d="M17.9,14.2v-.8c1.2-.4,2.5-.5,3.8-.7,0,.2.1.5,0,.8l-3.9.7s.1,0,0,0h0Z" data-active="1" style="fill: #bbc2c4;" />
        <path d="M17.7,20.6c.1.6,0,.7.2,1.1l-2.9.7v-1.1c.9-.5,1.8-.4,2.7-.6h0Z" data-active="1" style="fill: #9ba0a2;" />
        <path d="M16.9,28.2c.1.2.4.2.6,0,.1.2.1.5.1.7-1.2.3-2.4.5-3.6.9s-.4-.2-.5-.4c0-.6,2.7-1,3.2-1.1h.2,0Z" data-active="1" style="fill: #a8aeb1;" />
        <path d="M17.7,25.1v.8l-3.5.9c-.2,0-.4-.3-.4-.4,0-.6,3.3-1.1,3.8-1.2h0Z" data-active="1" style="fill: #a6abad;" />
        <path d="M17.8,17.6v1.1l-2.7.7v-1.2c.9-.4,1.8-.5,2.6-.6,0,0,.1,0,0,0,0,0,.1,0,0,0h0Z" data-active="1" style="fill: #9ba0a3;" />
        <path d="M21.6,9.4c-.1-.7-.2-1.4-.2-2.1s.5-.4.7-.3c.8.2.7,1.5.8,2.3l-1.3.2h0Z" data-active="1" style="fill: #e4e9ea;" />
        <path d="M18,11.3v-.8c1.2-.3,2.4-.5,3.7-.6v.8s-3.7.6-3.7.6Z" data-active="1" style="fill: #bcc2c4;" />
        <path d="M17.7,22.2c0,.3,0,.5.2.7-1.2.2-2.2.5-3.4.8s-.4-.2-.4-.3c-.1-.7,3.1-1.1,3.6-1.2Z" data-active="1" style="fill: #a6abad;" />
        <path d="M17.9,14.7v1.1l-2.5.7c0-.3,0-.9.1-1.1.8-.4,1.6-.4,2.4-.6h0Z" data-active="1" style="fill: #9da2a4;" />
        <path d="M17.8,19.3v.8l-3.2.8c-.2,0-.3-.3-.3-.4s0-.3.2-.4c1.1-.4,2.2-.6,3.2-.8h.1Z" data-active="1" style="fill: #a5aaac;" />
        <path d="M17.9,11.8v1.1l-2.4.6v-1.1c.8-.3,1.6-.4,2.3-.6h.1Z" data-active="1" style="fill: #9ca1a3;" />
        <path d="M17.8,16.4v.7l-2.9.8c-.2,0-.4-.2-.4-.3-.2-.7,3-1.1,3.3-1.1h0Z" data-active="1" style="fill: #a5aaac;" />
        <path d="M17.8,13.4v.8l-2.8.7c-.2,0-.3-.2-.4-.3s0-.4.3-.4c1-.3,1.9-.6,2.9-.7h0Z" data-active="1" style="fill: #a2a7a9;" />
        <path d="M18,10.5v.8c-.9.2-1.7.4-2.6.7s-.4-.1-.4-.3,0-.3.2-.4c.9-.4,1.8-.5,2.8-.8Z" data-active="1" style="fill: #a7abae;" />
        <path d="M22.3,26.8v-1.1c.5-.2,1.1-.2,1.7-.2.1.4,0,.8,0,1.2l-1.8.2h0Z" data-active="1" style="fill: #e2e9eb;" />
        <path d="M22.2,23.9v-1.2l1.8-.2v1.1c-.5.2-1.1.2-1.7.3h0Z" data-active="1" style="fill: #e1e8e9;" />
        <path d="M22,19.8c.6,0,1.2-.2,1.8-.2v1.2l-1.7.2v-1.2h0Z" data-active="1" style="fill: #e3e9ea;" />
        <path d="M21.9,18.1v-1.1c.5,0,1.1-.2,1.6-.2.2.4,0,.8.2,1.1-.6,0-1.2,0-1.8.2Z" data-active="1" style="fill: #e3e9ea;" />
        <path d="M24.1,26.6v-1.2c.5,0,1.1-.1,1.7-.1,0,.4.1.8.1,1.2-.6.2-1.2,0-1.7.1h-.1Z" data-active="1" style="fill: #b7bfc3;" />
        <path d="M21.8,15.2c-.1-.4,0-.8,0-1.2l1.6-.2v1.1c-.4.1-1,.2-1.5.2h-.1Z" data-active="1" style="fill: #e4eaeb;" />
        <path d="M24.2,27.9v-.8c.5,0,2.5-.5,2.4.3s-1.8.5-2.4.5Z" data-active="1" style="fill: #b4bdc0;" />
        <path d="M24.1,25v-.8c.4,0,2.4-.5,2.3.2s-.2.4-.4.4h-1.9s0,.2,0,.2Z" data-active="1" style="fill: #b8c0c4;" />
        <path d="M21.6,11.1c.5,0,1-.2,1.5-.2.1.4,0,.8.2,1.1-.5.1-1,.2-1.6.2v-1.2h-.1Z" data-active="1" style="fill: #e3e8e9;" />
        <path d="M24,23.6v-1.1c.4,0,.9-.1,1.4-.1,0,.4.1.8,0,1.1-.5.2-1.1,0-1.5.1h.1Z" data-active="1" style="fill: #b8c0c3;" />
        <path d="M23.8,22.1v-.8c.4,0,2.2-.5,2.2.2s-1.7.5-2.2.6Z" data-active="1" style="fill: #b5bdc1;" />
        <path d="M23.8,20.8v-1.2c.5,0,.9-.2,1.4-.1v1.1c-.5.1-1,0-1.5.1h.1Z" data-active="1" style="fill: #b8c1c5;" />
        <path d="M23.7,19.1c-.1-.2,0-.5,0-.8.5,0,2.1-.4,2.2.2s-1.5.6-2.1.6h-.1Z" data-active="1" style="fill: #bac0c3;" />
        <path d="M23.5,16.2c-.1-.2,0-.5-.1-.8.5,0,2.1-.5,2.1.2s-1.5.5-2,.6Z" data-active="1" style="fill: #b6bec2;" />
        <path d="M23.6,17.9c-.1-.4,0-.8-.2-1.1.5,0,.9-.2,1.4-.1,0,.4.1.8,0,1.1h-1.3.1Z" data-active="1" style="fill: #b9c2c6;" />
        <path d="M22.3,28.1v-.8c.7,0,1.3-.2,2-.2v.8l-1.9.2h-.1Z" data-active="1" style="fill: #e5e9eb;" />
        <path d="M23.3,13.3v-.8c.3,0,2.2-.5,2,.3s-1.4.4-1.9.5h-.1Z" data-active="1" style="fill: #bbc2c5;" />
        <path d="M23.4,14.9v-1.1c.3,0,.7-.1,1.2,0,0,.3.1.7,0,1.1-.4.3-.9,0-1.3.1h0Z" data-active="1" style="fill: #b6bfc2;" />
        <path d="M22.2,25.1v-.8c.6,0,1.2-.2,1.8-.2v.8l-1.9.2h.1Z" data-active="1" style="fill: #e6ebec;" />
        <path d="M23.3,12.1c-.2-.3,0-.8-.2-1.1.4,0,.8-.2,1.3,0,0,.3.1.7,0,1.1-.4.2-.8,0-1.2.1h.1Z" data-active="1" style="fill: #bdc3c6;" />
        <path d="M22.1,22.2v-.8c.6,0,1.2-.3,1.8-.2v.8l-1.8.2Z" data-active="1" style="fill: #e6eaeb;" />
        <path d="M23.1,10.5v-.8c.4,0,2.1-.5,1.9.3s-1.4.4-1.9.4h0Z" data-active="1" style="fill: #bfc4c7;" />
        <path d="M22,19.3v-.8l1.7-.2v.8l-1.8.2h0Z" data-active="1" style="fill: #e5eaeb;" />
        <path d="M21.8,16.4v-.8l1.7-.2c0,.3,0,.5.1.8l-1.7.2h-.1Z" data-active="1" style="fill: #e6ebeb;" />
        <path d="M21.7,13.5v-.8c.5,0,1-.2,1.6-.2v.8l-1.6.2Z" data-active="1" style="fill: #e6eaeb;" />
        <path d="M21.6,9.9c.5,0,1-.2,1.5-.2v.8l-1.5.2v-.8Z" data-active="1" style="fill: #e1e5e6;" />
        </g>
      <path id="peri-implant-bone-loss" d="M9.5,27c2,7,6,10,9,10s7-3,9-10c-2,4-5,6-9,6s-7-2-9-6Z" data-active="1" style="display: none; fill: #d9534f;" />
      </g>
    <g id="prosthesis-implant" data-active="1">
      <g id="prosthesis-implant-gum" data-active="1" style="display: none; opacity: .5;">
        <path d="M35.6,57.6v-11.7c0-.8-.8-1.5-1.8-1.5H7.3c-8.3,0-1.8.6-1.8,1.4,0,2.7-.3,8.7-.3,11.7s.8,1.5,1.8,1.5h26.8c5.4,0,1.8-.7,1.8-1.5h0Z" data-active="1" style="fill: url(#radial-gradient-14-1);" />
        <path d="M35.5,57.6c-.2-3.9-.4-7.7-.5-11.6,0-1-1.1-1.1-1.9-1-4.4,0-13.2-.3-17.7-.5H7.2c-.7,0-1.1,1-.7,1.5.2,3.9-.2,7.8-.4,11.6,0,.4.6.6,1,.5,1.4,0,6,.2,7.5.2,3.6,0,12.8.4,16.3.5h2.7c.8,0,1.8-.5,1.8-1.4h0v.3h.1ZM35.7,57.6c0,1-1.1,1.6-2,1.6h-2.7l-5.4.2c-4.7,0-13.7.4-18.4.6-1.7,0-3.3-1.2-3-3.1,0-3.7,0-7.4.2-11.1.2-1.7,1.8-1.6,2.9-1.4h2.7c6.9,0,16.3-.6,23.1-.6s1.1,0,1.5,0c.8.2,1.6,1.2,1.5,2.1,0,3.9-.3,7.7-.5,11.6h0Z" data-active="1" style="fill: #ffa46a;" />
        </g>
      <path id="prosthesis-implant-crown" d="M23.5,53.7c-2.1-2.6-5.5-2.1-6.8.9-.3,1.4-.8,2.8-1.3,4.1-.5,2.2-1.3,6.8,1.1,8,1.6.6,3.2-1,4.8-.5.7,0,1.3.4,1.9.3,4.2-1.1,2.1-6.8,1.2-10.3-.2-.8-.6-1.7-.9-2.4h0Z" data-active="1" style="display: none; fill: #f9ae94; stroke: #0a1018; stroke-miterlimit: 10;" />
      </g>
    <g id="prosthesis" data-active="1">
      <path id="prosthesis-connector" d="M33.9,55.2c3.5-1.7,2.7-6.9-1-7.8-1.2-.4-2.5-.5-3.8-.5H10c-1.9,0-4.2.7-5.2,2.2-1.2,1.7-1.3,4.3,0,5.9,1.7,1.6,5,1.5,7.6,1.5s6.7,0,10.2-.2c3.7-.2,8.5.2,11-1.1,0,0,.2,0,.2,0Z" data-active="1" style="display: none; fill: url(#linear-gradient-14-19); stroke: #1b3f1c; stroke-miterlimit: 10; stroke-width: .2px;" />
      <path id="prosthesis-crown" d="M27.1,37c-4.6-5.7-12.3-4.6-15.2,1.9-.7,3.1-1.7,6.2-2.8,9.2-1.2,5-2.8,15.3,2.5,17.8,3.5,1.4,7.2-2.2,10.8-1.1,1.5.3,2.8.9,4.2.7,9.4-2.4,4.7-15.1,2.7-23.1-.5-1.8-1.3-3.7-2.1-5.3h-.1Z" data-active="1" style="display: none; fill: #f9ae94; stroke: #0a1018; stroke-miterlimit: 10;" />
      </g>
    <g id="telescope" data-active="1">
      <path id="telescope-bridge-connector" d="M33.9,55.2c3.5-1.7,2.7-6.9-1-7.8-1.2-.4-2.5-.5-3.8-.5H10c-1.9,0-4.2.7-5.2,2.2-1.2,1.7-1.3,4.3,0,5.9,1.7,1.6,5,1.5,7.6,1.5s6.7,0,10.2-.2c3.7-.2,8.5.2,11-1.1,0,0,.2,0,.2,0Z" data-active="1" style="display: none; fill: #0051bf; stroke: #1b3f1c; stroke-miterlimit: 10; stroke-width: .2px;" />
      <g id="telescope-crown" data-active="1" style="display: none;">
        <path id="telescope-crown-outside" d="M27.1,37c-4.6-5.7-12.3-4.6-15.2,1.9-.7,3.1-1.7,6.2-2.8,9.2-1.2,5-2.8,15.3,2.5,17.8,3.5,1.4,7.2-2.2,10.8-1.1,1.5.3,2.8.9,4.2.7,9.4-2.4,4.7-15.1,2.7-23.1-.5-1.8-1.3-3.7-2.1-5.3h-.1Z" data-active="1" style="fill: #0051bf; stroke: #0a1018; stroke-miterlimit: 10;" />
        <path id="telescope-crown-inside" d="M25.5,39.8c-3.6-4.4-9.6-3.6-11.9,1.5-.5,2.5-1.4,4.9-2.2,7.2-1,3.9-2.2,11.9,2,13.9,2.7,1.1,5.6-1.7,8.5-.9,1.2.2,2.2.7,3.3.6,7.3-1.8,3.7-11.8,2.1-18-.4-1.4-1-2.9-1.6-4.1h0s-.2-.2-.2-.2Z" data-active="1" style="fill: #aaa; stroke: #0a1018; stroke-miterlimit: 10;" />
        </g>
      </g>
    <g id="zircon" data-active="1">
      <path id="zircon-bridge-connector" d="M33.9,55.2c3.5-1.7,2.7-6.9-1-7.8-1.2-.4-2.5-.5-3.8-.5H10c-1.9,0-4.2.7-5.2,2.2-1.2,1.7-1.3,4.3,0,5.9,1.7,1.6,5,1.5,7.6,1.5s6.7,0,10.2-.2c3.7-.2,8.5.2,11-1.1,0,0,.2,0,.2,0Z" data-active="1" style="display: none; fill: #feffbf; stroke: #1b3f1c; stroke-miterlimit: 10; stroke-width: .2px;" />
      <path id="zircon-crown" d="M27,37c-4.7-5.7-12.5-4.6-15.5,1.9-1.3,3-2.2,5.9-2.8,9.2-1.2,5-2.8,15.3,2.5,17.8,3.6,1.4,7.3-2.2,11-1.1,1.5.3,2.8.9,4.3.7,9.6-2.4,4.8-15.1,2.7-23.1-.5-1.8-2.2-5.4-2.2-5.4Z" data-active="1" style="display: none; fill: #feffbf; stroke: #0a1018; stroke-miterlimit: 10;" />
      <path id="zircon-inlay" d="M23.9,48.6c-2.5-3.1-6.8-2.5-8.4,1.1-.7,1.6-1.2,3.3-1.6,5.1-.7,2.8-1.6,8.5,1.4,9.8,1.9.8,4-1.2,6-.6.8.2,1.6.5,2.3.4,5.2-1.3,2.6-8.3,1.5-12.7-.3-1-1.2-2.9-1.2-2.9v-.2Z" data-active="1" style="display: none; fill: #feffbf; stroke: #0a1018; stroke-miterlimit: 10;" />
      <path id="zircon-veneer" d="M25.8,38.1c-4-5-10.8-4-13.4,1.7-1.1,2.6-1.9,5.2-2.5,8.1-1.1,4.4-2.5,13.5,2.2,15.6,3.1,1.2,6.3-1.9,9.5-1,1.3.3,2.5.8,3.7.6,8.3-2.1,4.1-13.3,2.4-20.3-.4-1.6-1.9-4.7-1.9-4.7Z" data-active="1" style="display: none; fill: #feffbf; stroke: #0a1018; stroke-miterlimit: 10;" />
      </g>
    <g id="metal" data-active="1">
      <path id="metal-bridge-connector" d="M33.9,55.2c3.5-1.7,2.7-6.9-1-7.8-1.2-.4-2.5-.5-3.8-.5H10c-1.9,0-4.2.7-5.2,2.2-1.2,1.7-1.3,4.3,0,5.9,1.7,1.6,5,1.5,7.6,1.5s6.7,0,10.2-.2c3.7-.2,8.5.2,11-1.1,0,0,.2,0,.2,0Z" data-active="1" style="display: none; fill: #0051bf; stroke: #1b3f1c; stroke-miterlimit: 10; stroke-width: .2px;" />
      <path id="metal-crown" d="M27,37c-4.7-5.7-12.5-4.6-15.5,1.9-1.4,2.8-2.2,6.1-2.8,9.2-1.2,5-2.8,15.3,2.5,17.8,3.6,1.4,7.3-2.2,11-1.1,1.5.3,2.8.9,4.3.7,9.6-2.4,4.8-15.1,2.7-23.1-.5-1.8-1.3-3.7-2.1-5.3h-.1,0Z" data-active="1" style="display: none; fill: #0051bf; stroke: #0a1018; stroke-miterlimit: 10;" />
      </g>
    <g id="metal-ceramic" data-active="1">
      <path id="metal-ceramic-bridge-connector" d="M33.9,55.2c3.5-1.7,2.7-6.9-1-7.8-1.2-.4-2.5-.5-3.8-.5H10c-1.9,0-4.2.7-5.2,2.2-1.2,1.7-1.3,4.3,0,5.9,1.7,1.6,5,1.5,7.6,1.5s6.7,0,10.2-.2c3.7-.2,8.5.2,11-1.1,0,0,.2,0,.2,0Z" data-active="1" style="display: none; fill: url(#radial-gradient-14-2); stroke: #1b3f1c; stroke-miterlimit: 10; stroke-width: .2px;" />
      <path id="metal-ceramic-crown" d="M27,37c-4.7-5.7-12.5-4.6-15.5,1.9-1.4,2.8-2.2,6.1-2.8,9.2-1.2,5-2.8,15.3,2.5,17.8,3.6,1.4,7.3-2.2,11-1.1,1.5.3,2.8.9,4.3.7,9.6-2.4,4.8-15.1,2.7-23.1-.5-1.8-1.3-3.7-2.1-5.3h-.1,0Z" data-active="1" style="display: none; fill: url(#radial-gradient-14-3); stroke: #0a1018; stroke-miterlimit: 10;" />
      </g>
    <g id="gold" data-active="1">
      <path id="gold-bridge-connector" d="M33.9,55.2c3.5-1.7,2.7-6.9-1-7.8-1.2-.4-2.5-.5-3.8-.5H10c-1.9,0-4.2.7-5.2,2.2-1.2,1.7-1.3,4.3,0,5.9,1.7,1.6,5,1.5,7.6,1.5s6.7,0,10.2-.2c3.7-.2,8.5.2,11-1.1,0,0,.2,0,.2,0Z" data-active="1" style="display: none; fill: #ece614; stroke: #1b3f1c; stroke-miterlimit: 10; stroke-width: .2px;" />
      <path id="gold-crown" d="M27,37c-4.7-5.7-12.5-4.6-15.5,1.9-.7,3.1-1.7,6.2-2.8,9.2-1.2,5-2.8,15.3,2.5,17.8,3.6,1.4,7.3-2.2,11-1.1,1.5.3,2.8.9,4.3.7,9.6-2.4,4.8-15.1,2.7-23.1-.5-1.8-1.3-3.7-2.1-5.3h-.1,0Z" data-active="1" style="display: none; fill: #ece614; stroke: #0a1018; stroke-miterlimit: 10;" />
      <path id="gold-inlay" d="M23.9,48.6c-2.5-3.1-6.8-2.5-8.4,1.1-.7,1.6-1.2,3.3-1.6,5.1-.7,2.8-1.6,8.5,1.4,9.8,1.9.8,4-1.2,6-.6.8.2,1.6.5,2.3.4,5.2-1.3,2.6-8.3,1.5-12.7-.3-1-1.2-2.9-1.2-2.9v-.2Z" data-active="1" style="display: none; fill: #ece614; stroke: #0a1018; stroke-miterlimit: 10;" />
      <path id="gold-veneer" d="M25.8,38.1c-4-5-10.8-4-13.4,1.7-1.1,2.6-1.9,5.2-2.5,8.1-1.1,4.4-2.5,13.5,2.2,15.6,3.1,1.2,6.3-1.9,9.5-1,1.3.3,2.5.8,3.7.6,8.3-2.1,4.1-13.3,2.4-20.3-.4-1.6-1.9-4.7-1.9-4.7Z" data-active="1" style="display: none; fill: #ece614; stroke: #0a1018; stroke-miterlimit: 10;" />
      </g>
    <g id="emax" data-active="1">
      <path id="emax-bridge-connector" d="M33.9,55.2c3.5-1.7,2.7-6.9-1-7.8-1.2-.4-2.5-.5-3.8-.5H10c-1.9,0-4.2.7-5.2,2.2-1.2,1.7-1.3,4.3,0,5.9,1.7,1.6,5,1.5,7.6,1.5s6.7,0,10.2-.2c3.7-.2,8.5.2,11-1.1,0,0,.2,0,.2,0Z" data-active="1" style="display: none; fill: url(#radial-gradient-14-4); stroke: #1b3f1c; stroke-miterlimit: 10; stroke-width: .2px;" />
      <path id="emax-crown" d="M27,37c-4.7-5.7-12.5-4.6-15.5,1.9-.7,3.1-1.7,6.2-2.8,9.2-1.2,5-2.8,15.3,2.5,17.8,3.6,1.4,7.3-2.2,11-1.1,1.5.3,2.8.9,4.3.7,9.6-2.4,4.8-15.1,2.7-23.1-.5-1.8-1.3-3.7-2.1-5.3h-.1,0Z" data-active="1" style="display: none; fill: url(#radial-gradient-14-5); stroke: #0a1018; stroke-miterlimit: 10;" />
      <path id="emax-inlay" d="M23.9,48.6c-2.5-3.1-6.8-2.5-8.4,1.1-.7,1.6-1.2,3.3-1.6,5.1-.7,2.8-1.6,8.5,1.4,9.8,1.9.8,4-1.2,6-.6.8.2,1.6.5,2.3.4,5.2-1.3,2.6-8.3,1.5-12.7-.3-1-1.2-2.9-1.2-2.9v-.2Z" data-active="1" style="display: none; fill: url(#radial-gradient-14-6); stroke: #0a1018; stroke-miterlimit: 10;" />
      <path id="emax-veneer" d="M25.8,38.1c-4-5-10.8-4-13.4,1.7-1.1,2.6-1.9,5.2-2.5,8.1-1.1,4.4-2.5,13.5,2.2,15.6,3.1,1.2,6.3-1.9,9.5-1,1.3.3,2.5.8,3.7.6,8.3-2.1,4.1-13.3,2.4-20.3-.4-1.6-1.9-4.7-1.9-4.7Z" data-active="1" style="display: none; fill: url(#radial-gradient-14-7); stroke: #0a1018; stroke-miterlimit: 10;" />
      </g>
    <g id="gradia" data-active="1">
      <path id="gradia-bridge-connector" d="M33.9,55.2c3.5-1.7,2.7-6.9-1-7.8-1.2-.4-2.5-.5-3.8-.5H10c-1.9,0-4.2.7-5.2,2.2-1.2,1.7-1.3,4.3,0,5.9,1.7,1.6,5,1.5,7.6,1.5s6.7,0,10.2-.2c3.7-.2,8.5.2,11-1.1,0,0,.2,0,.2,0Z" data-active="1" style="display: none; fill: #55ff98; stroke: #1b3f1c; stroke-miterlimit: 10; stroke-width: .2px;" />
      <path id="gradia-crown" d="M27,37c-4.7-5.7-12.5-4.6-15.5,1.9-.7,3.1-1.7,6.2-2.8,9.2-1.2,5-2.8,15.3,2.5,17.8,3.6,1.4,7.3-2.2,11-1.1,1.5.3,2.8.9,4.3.7,9.6-2.4,4.8-15.1,2.7-23.1-.5-1.8-1.3-3.7-2.1-5.3h-.1,0Z" data-active="1" style="display: none; fill: #55ff98; stroke: #0a1018; stroke-miterlimit: 10;" />
      <path id="gradia-inlay" d="M23.9,48.6c-2.5-3.1-6.8-2.5-8.4,1.1-.7,1.6-1.2,3.3-1.6,5.1-.7,2.8-1.6,8.5,1.4,9.8,1.9.8,4-1.2,6-.6.8.2,1.6.5,2.3.4,5.2-1.3,2.6-8.3,1.5-12.7-.3-1-1.2-2.9-1.2-2.9v-.2Z" data-active="1" style="display: none; fill: #55ff98; stroke: #0a1018; stroke-miterlimit: 10;" />
      <path id="gradia-veneer" d="M25.8,38.1c-4-5-10.8-4-13.4,1.7-1.1,2.6-1.9,5.2-2.5,8.1-1.1,4.4-2.5,13.5,2.2,15.6,3.1,1.2,6.3-1.9,9.5-1,1.3.3,2.5.8,3.7.6,8.3-2.1,4.1-13.3,2.4-20.3-.4-1.6-1.9-4.7-1.9-4.7Z" data-active="1" style="display: none; fill: #55ff98; stroke: #0a1018; stroke-miterlimit: 10;" />
      </g>
    <g id="temporary-restorations" data-active="1">
      <path id="temporary-bridge-connector" d="M33.9,55.2c3.5-1.7,2.7-6.9-1-7.8-1.2-.4-2.5-.5-3.8-.5H10c-1.9,0-4.2.7-5.2,2.2-1.2,1.7-1.3,4.3,0,5.9,1.7,1.6,5,1.5,7.6,1.5s6.7,0,10.2-.2c3.7-.2,8.5.2,11-1.1,0,0,.2,0,.2,0Z" data-active="1" style="display: none; fill: #fff; stroke: #1b3f1c; stroke-miterlimit: 10; stroke-width: .2px;" />
      <path id="temporary-crown" d="M27,37c-4.7-5.7-12.5-4.6-15.5,1.9-.7,3.1-1.7,6.2-2.8,9.2-1.2,5-2.8,15.3,2.5,17.8,3.6,1.4,7.3-2.2,11-1.1,1.5.3,2.8.9,4.3.7,9.6-2.4,4.8-15.1,2.7-23.1-.5-1.8-1.3-3.7-2.1-5.3h-.1,0Z" data-active="1" style="display: none; fill: #fff; stroke: #0a1018; stroke-miterlimit: 10;" />
      <path id="temporary-inlay" d="M23.9,48.6c-2.5-3.1-6.8-2.5-8.4,1.1-.7,1.6-1.2,3.3-1.6,5.1-.7,2.8-1.6,8.5,1.4,9.8,1.9.8,4-1.2,6-.6.8.2,1.6.5,2.3.4,5.2-1.3,2.6-8.3,1.5-12.7-.3-1-1.2-2.9-1.2-2.9v-.2Z" data-active="1" style="display: none; fill: #fff; stroke: #0a1018; stroke-miterlimit: 10;" />
      <path id="temporary-veneer" d="M25.8,38.1c-4-5-10.8-4-13.4,1.7-1.1,2.6-1.9,5.2-2.5,8.1-1.1,4.4-2.5,13.5,2.2,15.6,3.1,1.2,6.3-1.9,9.5-1,1.3.3,2.5.8,3.7.6,8.3-2.1,4.1-13.3,2.4-20.3-.4-1.6-1.9-4.7-1.9-4.7Z" data-active="1" style="display: none; fill: #fff; stroke: #0a1018; stroke-miterlimit: 10;" />
      </g>
    </g>
  <g id="ortho" data-active="1">
    <g id="missing-closed" data-active="1" style="display: none;">
      <path d="M4.7,8.2c17.4,16.6,15.5,37.8,0,54.8" data-active="1" style="fill: none; stroke: #000; stroke-miterlimit: 10; stroke-width: 2px;" />
      <path d="M31.4,61.6c-17.6-16.4-15.8-37.6-.5-54.8" data-active="1" style="fill: none; stroke: #000; stroke-miterlimit: 10; stroke-width: 2px;" />
      </g>
    <g id="ortho-ring" style="display: none;" data-active="1">
      <ellipse cx="19.5" cy="52.5" rx="3.6" ry="11.8" transform="translate(-33.3 71.1) rotate(-89.1)" style="fill: #bfbfbf;" data-active="1" />
      <line x1="10.1" y1="56.2" x2="29.2" y2="56.2" style="fill: none; stroke: #737373; stroke-linecap: round; stroke-linejoin: round; stroke-width: .8px;" data-active="1" />
      <line x1="10.1" y1="48.9" x2="29.2" y2="48.9" style="fill: none; stroke: #737373; stroke-linecap: round; stroke-linejoin: round; stroke-width: .8px;" data-active="1" />
      <line x1="9" y1="53.5" x2="30.2" y2="53.5" style="fill: none; stroke: #000; stroke-linecap: round; stroke-linejoin: round; stroke-width: .8px;" data-active="1" />
      <line x1="9" y1="51.1" x2="30.2" y2="51.1" style="fill: none; stroke: #000; stroke-linecap: round; stroke-linejoin: round; stroke-width: .8px;" data-active="1" />
      <path d="M30.1,48.9c.7-.2,1.4.3,1.4.9v5.5c0,.4-.5.8-.9.9h-.5" style="fill: none; stroke: #737373; stroke-linecap: round; stroke-linejoin: round; stroke-width: .8px;" data-active="1" />
      <path d="M9.1,56.2h-.5c-.4,0-.9-.4-.9-.9v-5.5c0-.6.6-1,1.2-.9h.2" style="fill: none; stroke: #737373; stroke-linecap: round; stroke-linejoin: round; stroke-width: .8px;" data-active="1" />
      </g>
    <g id="ortho-bracket" style="display: none;" data-active="1">
      <ellipse cx="17.1" cy="51.2" rx="1.6" ry="5.4" style="fill: #bfbfbf;" data-active="1" />
      <ellipse cx="22.9" cy="51.1" rx="1.6" ry="5.4" style="fill: #bfbfbf;" data-active="1" />
      <line x1="18.6" y1="54.9" x2="21.4" y2="54.9" style="fill: none; stroke: #737373; stroke-linecap: round; stroke-linejoin: round; stroke-width: .8px;" data-active="1" />
      <line x1="18.6" y1="48" x2="21.4" y2="48" style="fill: none; stroke: #737373; stroke-linecap: round; stroke-linejoin: round; stroke-width: .8px;" data-active="1" />
      <path d="M21.5,50v-2.9c.1-.6.6-1.1,1.2-1.1s1.3.4,1.4,1.2v8c0,.7-.6,1.3-1.3,1.3s-1.3-.5-1.3-1.3v-2.7" style="fill: none; stroke: #737373; stroke-linecap: round; stroke-linejoin: round; stroke-width: .8px;" data-active="1" />
      <path d="M18.4,50v-2.9c0-.6-.6-1.1-1.2-1.1s-1.3.4-1.4,1.2v8c0,.7.6,1.3,1.3,1.3s1.3-.5,1.3-1.3v-2.7" style="fill: none; stroke: #737373; stroke-linecap: round; stroke-linejoin: round; stroke-width: .8px;" data-active="1" />
      <line x1="16" y1="52.4" x2="24" y2="52.4" style="fill: none; stroke: #000; stroke-linecap: round; stroke-linejoin: round; stroke-width: .8px;" data-active="1" />
      <line x1="16" y1="50.2" x2="24" y2="50.2" style="fill: none; stroke: #000; stroke-linecap: round; stroke-linejoin: round; stroke-width: .8px;" data-active="1" />
      <path d="M24.3,48.1c.6-.2,1.3.3,1.3.8v5.2c0,.4-.4.8-.8.8h-.5" style="fill: none; stroke: #737373; stroke-linecap: round; stroke-linejoin: round; stroke-width: .8px;" data-active="1" />
      <path d="M15.6,54.9h-.5c-.4,0-.8-.4-.8-.8v-5.2c0-.6.6-.9,1-.8h.2" style="fill: none; stroke: #737373; stroke-linecap: round; stroke-linejoin: round; stroke-width: .8px;" data-active="1" />
      </g>
    <g id="arrows" data-active="1">
      <g id="arrow-distal" style="display: none;" data-active="1">
        <line x1="5" y1="60.3" x2="1.5" y2="63.9" style="fill: none; stroke: #2e3192; stroke-miterlimit: 10; stroke-width: .8px;" data-active="1" />
        <line x1="7.5" y1="64.1" x2="1.4" y2="64.1" style="fill: none; stroke: #2e3192; stroke-miterlimit: 10; stroke-width: .8px;" data-active="1" />
        <line x1="5" y1="67.7" x2="1.5" y2="64.1" style="fill: none; stroke: #2e3192; stroke-miterlimit: 10; stroke-width: .8px;" data-active="1" />
        </g>
      <g id="arrow-mesial" style="display: none;" data-active="1">
        <line x1="34.3" y1="68.1" x2="38.5" y2="64.5" style="fill: none; stroke: #2e3192; stroke-miterlimit: 10; stroke-width: .8px;" data-active="1" />
        <line x1="31.1" y1="64.3" x2="38.7" y2="64.3" style="fill: none; stroke: #2e3192; stroke-miterlimit: 10; stroke-width: .8px;" data-active="1" />
        <line x1="34.3" y1="60.7" x2="38.5" y2="64.3" style="fill: none; stroke: #2e3192; stroke-miterlimit: 10; stroke-width: .8px;" data-active="1" />
        </g>
      <g id="arrow-down" style="display: none;" data-active="1">
        <line x1="39" y1="39.6" x2="35.2" y2="33.6" style="fill: none; stroke: #2e3192; stroke-miterlimit: 10; stroke-width: .8px;" data-active="1" />
        <line x1="34.8" y1="43.8" x2="35.2" y2="33.3" style="fill: none; stroke: #2e3192; stroke-miterlimit: 10; stroke-width: .8px;" data-active="1" />
        <line x1="31" y1="39.4" x2="35" y2="33.4" style="fill: none; stroke: #2e3192; stroke-miterlimit: 10; stroke-width: .8px;" data-active="1" />
        </g>
      <g id="arrow-up" style="display: none;" data-active="1">
        <line x1="31" y1="37.5" x2="34.8" y2="43.7" style="fill: none; stroke: #2e3192; stroke-miterlimit: 10; stroke-width: .8px;" data-active="1" />
        <line x1="34.8" y1="33.3" x2="34.8" y2="43.8" style="fill: none; stroke: #2e3192; stroke-miterlimit: 10; stroke-width: .8px;" data-active="1" />
        <line x1="38.8" y1="37.7" x2="35" y2="43.7" style="fill: none; stroke: #2e3192; stroke-miterlimit: 10; stroke-width: .8px;" data-active="1" />
        </g>
      <g id="arrow-rotation" style="display: none;" data-active="1">
        <path d="M19.9,70.8c-.2,0-.8-.3-1.1-1s-.2-.9-.1-1.1" style="fill: none; stroke: #2e3192; stroke-miterlimit: 10; stroke-width: .8px;" data-active="1" />
        <path d="M18,66.3c1-1.4,6.1-1.3,5.4,1.7-.1,3.5-8,.9-3.4,0" style="fill: none; stroke: #2e3192; stroke-miterlimit: 10; stroke-width: .8px;" data-active="1" />
        </g>
      </g>
    </g>
  <g id="specials" data-active="1">
    <g id="fracture-vertical" style="display: none;" data-active="1">
      <line id="fracture-vertical-3" x1="32.7" y1="5.5" x2="11.2" y2="62.2" style="fill: none; stroke: #fdecc5; stroke-miterlimit: 10; stroke-width: 2px;" data-active="1" />
      <line id="fracture-vertical-2" x1="29.2" y1="14.7" x2="10.2" y2="65" style="fill: none; isolation: isolate; opacity: .6; stroke: #9e00e9; stroke-miterlimit: 10; stroke-width: .2px;" data-active="1" />
      <polyline id="fracture-vertical-1" points="30.5 16.1 25.6 16.7 27.8 23.1 23.8 23.1 25.5 26.4 22.2 26.4 25.1 31 19.3 30.5 22.6 36.7 16.7 37.1 19.3 44.7 15.6 44.1 16.7 50.7 13.9 50.4 14.7 55 12 55.3 14.3 59.6 9.9 59.2 11.8 63.8" style="fill: none; isolation: isolate; opacity: .4; stroke: #ed1c24; stroke-miterlimit: 10; stroke-width: .8px;" data-active="1" />
      </g>
    <g id="fracture-horizontal" style="display: none;" data-active="1">
      <line id="fracture-horizontal-3" x1="6.1" y1="9.2" x2="29.7" y2="29.6" style="fill: none; stroke: #fdecc5; stroke-miterlimit: 10; stroke-width: 2px;" data-active="1" />
      <line id="fracture-horizontal-2" x1="10.5" y1="13" x2="27.3" y2="27.4" style="fill: none; isolation: isolate; opacity: .6; stroke: #9e00e9; stroke-miterlimit: 10; stroke-width: .2px;" data-active="1" />
      <polyline id="fracture-horizontal-1" points="8.4 14.8 11.2 14 11.4 16.6 15.5 15.2 15.8 19.9 18.6 18.2 18.9 22.2 22.5 20.5 22.2 24.7 26.4 23.3 25.3 26.5 29.1 26" style="fill: none; isolation: isolate; opacity: .4; stroke: #ed1c24; stroke-miterlimit: 10; stroke-width: .8px;" data-active="1" />
      </g>
    <g id="parapulpal-pin" data-active="1" style="display: none;">
      <g id="parapulpal-pin-shape" data-active="1">
        <path d="M25.9,47.7c.1.5,0,.6,0,.8v.8c.1.4,0,.6,0,.8.1.3,0,.6,0,.8v2.4c.1.4.4.8,1,1.1s.2.2.1.3,0,.2,0,.3,0,.2-.3.3c-1.2.2-2.5.2-3.7,0s-.3,0-.3-.2v-.6c0-.2.9-.3,1-1s0-.7,0-1.1l.2-5,.2-4.4c0-1.2.2-2.3.4-3.5s0-.2.2-.3c.1.2.1.3.2.5.3,1.2.4,2.4.5,3.6l.3,3.5v.2c.1.2,0,.5,0,.8h.2,0Z" data-active="1" style="fill: #0a0a0a;" />
        <path d="M24.3,51.3c-.1,0-.2-.2-.2-.3v-3.7l.2-3.9.2-2.2h.1v9.3c0,.3,0,.6-.3.8Z" data-active="1" style="fill: #f0edee;" />
        <path d="M25.2,50.7h0v-1.7h0v-1h0v-6.5c0,.2.1.5.1.7v.5l.3,3.4v3.2l.2,1.8v.3h-.1c-.2-.2-.3-.4-.5-.6h0Z" data-active="1" style="fill: #eaeaea;" />
        <path d="M25.2,50.7v-.2c-.1,0-.3-10.5-.3-10.5v-.3l.2.7s.1.2,0,.2h0c-.1,0,0,.7,0,.8v6.2h0v2.8h0v.3s.1,0,0,0Z" data-active="1" style="fill: #9c9c9c;" />
        <path d="M24.4,52.4c.2.3.5.6.7.9s0,.3,0,.5c-.2.4-.8.4-1.4.5.9-.7.2-1.1.9-1.9h-.2Z" data-active="1" style="fill: #c7c7c7;" />
        <path d="M25.8,52.4c.5.4.3.7.4,1v.2c0,.2.3.5.6.7h-.9c-.7-.2-.8-.8-.7-1s.4-.6.6-.8h0Z" data-active="1" style="fill: #b5b4b6;" />
        <path d="M25.2,54.4c.4,0,1.7,0,2,.2v.5h-1.5c-.5,0-.4,0-.4-.2v-.4h-.1Z" data-active="1" style="fill: #bababa;" />
        <path d="M23.6,55v-.5h1.3c0,.2,0,.4-.2.5s-.8,0-1.2,0h.1Z" data-active="1" style="fill: #cdcdcd;" />
        <path d="M23.8,55.3h2.8-2.7c-.9,0,0,0-.1,0s0,0,0,0Z" data-active="1" style="fill: #9da1a2;" />
        <path d="M23.7,54.5v.5h-.6v-.5c.2,0,.5,0,.7-.2h-.1v.2Z" data-active="1" style="fill: #8b8d8c;" />
        <path d="M24.6,51.7c.1,0,.2,0,.3.2l-.3.2s-.2,0-.2-.2c0,0,.1,0,.2-.2Z" data-active="1" style="fill: #acaaac;" />
        <path d="M25.5,51.7h.2l-.2.2c-.1,0-.2,0-.3-.2h.3Z" data-active="1" style="fill: #b2b0b3;" />
        <path d="M24.4,51.9h.2s-.1,0-.2.2h-.2c-.1,0,0,0,.2-.2Z" data-active="1" style="fill: #e4e1e2;" />
        <path d="M25.4,52.1c-.2.2-.1.2-.3.3v-.4l.3.2h0Z" data-active="1" style="fill: #8b8989;" />
        <path d="M24.4,51.5h.2v.2h-.3s0-.2.2-.2h-.1Z" data-active="1" style="fill: #e3e3e3;" />
        <path d="M25.6,52.1h.4c.1,0,0,0-.1.2,0,0-.2,0-.2-.2,0,0-.1,0,0,0Z" data-active="1" style="fill: #cacaca;" />
        <path d="M24.7,52.1c.1,0,.2,0,.3-.2v.4c-.1,0-.2,0-.3-.2Z" data-active="1" style="fill: #7a797b;" />
        <path d="M25.5,51.6h.3s0,.2-.1,0-.1,0-.2,0Z" data-active="1" style="fill: #d2d1d3;" />
        <path d="M24.7,51.6c.1,0,.2,0,.3-.2v.3h-.3Z" data-active="1" style="fill: #7f7e80;" />
        <path d="M25.1,51.7s0-.6,0-.2c0,0,.2,0,.1,0h-.2.1v.2Z" data-active="1" style="fill: #7c7b7f;" />
        </g>
      </g>
    <g id="calculus" data-active="1" style="display: none;">
      <path id="calculus-shape-8" d="M20.4,43.2c.4,0,.8-.2.9-.4.3-.2.4-.6-.1-.7-.7-.2-1.4.8-.8,1.1h0Z" data-active="1" style="fill: #c4ff98;" />
      <path id="calculus-shape-7" d="M16.7,42.6c-.4,0-.7.3-.9.5-.2.3-.3.7.2.7.8,0,1.3-1.1.7-1.3h0Z" data-active="1" style="fill: #c4ff98;" />
      <path id="calculus-shape-6" d="M11.5,42.9c.5-.3.4-1.1.4-1.4,0-.5-.3-1.1-1-.6-.8.6-.3,2.4.6,2h0Z" data-active="1" style="fill: #9e1f63;" />
      <path id="calculus-shape-5" d="M15.5,44.3c-.4-.4-1.1,0-1.5,0-.5.2-1,.5-.3,1.1.8.7,2.4-.3,1.8-1.1h0Z" data-active="1" style="fill: #9e1f63;" />
      <path id="calculus-shape-4" d="M12.6,45c0-.5-.6-1-.9-1.1-.5-.3-1-.4-1.1.4,0,1,1.8,1.6,2,.7h0Z" data-active="1" style="fill: #9e1f63;" />
      <path id="calculus-shape-3" d="M26.8,40.8c-.5.2-.7.9-.7,1.3-.1.5,0,1.1.8.8,1-.4.9-2.2,0-2.1h0Z" data-active="1" style="fill: #9e1f63;" />
      <path id="calculus-shape-2" d="M24,43.9c0-.5-.8-.8-1.2-.9-.5-.2-1.1-.2-.9.7.2,1,2.1,1.2,2.1.3h0Z" data-active="1" style="fill: #9e1f63;" />
      <path id="calculus-shape-1" d="M26.7,43.7c-.5-.3-1.1,0-1.5.3-.5.3-.8.7-.1,1.1.9.5,2.3-.8,1.6-1.4h0Z" data-active="1" style="fill: #9e1f63;" />
      </g>
    </g>
  <g id="plan" data-active="1">
    <g id="extraction-plan" data-active="1" style="display: none;">
      <path d="M6.4,59.5c1.4-4,26.9-51.6,27.6-53.7" data-active="1" style="fill: none; stroke: #b70000; stroke-miterlimit: 10; stroke-width: 3px;" />
      <path d="M6.8,6.3c2.6,3.5,18.9,39.4,22.2,48.1.6,1.5,1.1,3,1.9,4.3" data-active="1" style="fill: none; stroke: #b70000; stroke-miterlimit: 10; stroke-width: 3px;" />
      </g>
    <g id="crown-needed" data-active="1" style="display: none;">
      <path id="crown-needed-shape" d="M26.3,36.6c-4.6-5.7-12.3-4.6-15.2,1.9-1.3,3-2.2,5.9-2.8,9.2-1.2,5-2.8,15.3,2.5,17.8,3.5,1.4,7.2-2.2,10.8-1.1,1.5.3,2.8.9,4.2.7,9.4-2.4,4.7-15.1,2.7-23.1-.5-1.8-2.2-5.4-2.2-5.4Z" data-active="1" style="fill: #c83014; stroke: #000; stroke-miterlimit: 10;" />
      <path id="crown-needed-path" d="M17.1,34.4c-2,3.6-4,7.2-6,10.7-.7,1.5-2.9,3.3-2,5,1.1,1.2,2-1.3,2.6-2.1,3-4.5,5-10.5,9.9-13.3.4-.2.7-.2.8,0,.2.2.1.7,0,1.2-2,7.1-9.7,14-11.8,20.8-4.5,12.9,1.5,5.4,4.4-1.2,2.5-4.8,6.3-12.5,9.9-16.5,2.3-1.7,1.6,2.6,1.2,4-1.3,6.8-9.8,12.4-9.9,19.5.9,5.7,8-10,9.6-12.2.6-1,2.5-3.3,2.6-1.1,0,3.8-2.4,8-4.1,11-.5,1.1-1.2,2.2-1.3,3.4.7,2.6,5.4-4.6,6.2-5.6" data-active="1" style="fill: #feffbf; stroke: #1b3f1c; stroke-miterlimit: 10;" />
      </g>
    <g id="crown-replace" data-active="1" style="display: none;">
      <path id="crown-replace-shape" d="M26.3,36.6c-4.6-5.7-12.3-4.6-15.2,1.9-1.3,3-2.2,5.9-2.8,9.2-1.2,5-2.8,15.3,2.5,17.8,3.5,1.4,7.2-2.2,10.8-1.1,1.5.3,2.8.9,4.2.7,9.4-2.4,4.7-15.1,2.7-23.1-.5-1.8-2.2-5.4-2.2-5.4Z" data-active="1" style="fill: none; stroke: #c83014; stroke-miterlimit: 10; stroke-width: 3px;" />
      </g>
    </g>
  </svg>
